<?xml version="1.0" encoding="UTF-8"?>
<svg version="1.1" viewBox="0 0 48 48" xmlns="http://www.w3.org/2000/svg">
 <defs>
  <clipPath id="_clip1-3">
   <rect x="1196" y="605" width="887" height="103"/>
  </clipPath>
  <clipPath id="clipPath988">
   <path d="m1267 526.84c31.568 0 57.158 25.589 57.158 57.157s-25.589 57.157-57.158 57.157-57.157-25.589-57.157-57.157 25.589-57.157 57.157-57.157z" fill="url(#linearGradient992)" stroke-width="2.4851"/>
  </clipPath>
  <linearGradient id="linearGradient992" x1="1" x2="47" gradientTransform="matrix(0 -2.4851 2.4851 0 1207.4 643.64)" gradientUnits="userSpaceOnUse">
   <stop stop-color="#e4e4e4" offset="0"/>
   <stop stop-color="#eee" offset="1"/>
  </linearGradient>
 </defs>
 <g transform="matrix(.39366 0 0 .39366 -475.27 -206.4)" clip-path="url(#clipPath988)" clip-rule="evenodd" fill-rule="evenodd" stroke-linejoin="round" stroke-miterlimit="1.4142">
  <g id="bunq_App_Icon_Square" transform="matrix(.13529 0 0 1.165 1045.2 -180.85)">
   <rect x="1196" y="605" width="887" height="103" fill="none"/>
   <clipPath>
    <rect x="1196" y="605" width="887" height="103"/>
   </clipPath>
   <g clip-path="url(#_clip1-3)">
    <g transform="matrix(2.4639 0 0 .85833 -1583.3 144.08)">
     <rect x="1128" y="537" width="60" height="120" fill="#238647"/>
    </g>
    <g transform="matrix(2.4639 0 0 .85833 -1509.4 144.08)">
     <rect x="1128" y="537" width="60" height="120" fill="#2f9b47"/>
    </g>
    <g transform="matrix(2.4639 0 0 .85833 -1435.4 144.08)">
     <rect x="1128" y="537" width="60" height="120" fill="#62b64f"/>
    </g>
    <g transform="matrix(2.4639 0 0 .85833 -1361.5 144.08)">
     <rect x="1128" y="537" width="60" height="120" fill="#89cc53"/>
    </g>
    <g transform="matrix(2.4639 0 0 .85833 -1287.6 144.08)">
     <rect x="1128" y="537" width="60" height="120" fill="#3db8ad"/>
    </g>
    <g transform="matrix(2.4639 0 0 .85833 -1213.7 144.08)">
     <rect x="1128" y="537" width="60" height="120" fill="#3394d7"/>
    </g>
    <g transform="matrix(2.4639 0 0 .85833 -1139.8 144.08)">
     <rect x="1128" y="537" width="60" height="120" fill="#2872bc"/>
    </g>
    <g transform="matrix(2.4639 0 0 .85833 -1065.8 144.08)">
     <rect x="1128" y="537" width="60" height="120" fill="#1d5c84"/>
    </g>
    <g transform="matrix(2.4639 0 0 .85833 -991.93 144.08)">
     <rect x="1128" y="537" width="60" height="120" fill="#993233"/>
    </g>
    <g transform="matrix(2.4639 0 0 .85833 -918.02 144.08)">
     <rect x="1128" y="537" width="60" height="120" fill="#e13030"/>
    </g>
    <g transform="matrix(2.4639 0 0 .85833 -844.1 144.08)">
     <rect x="1128" y="537" width="60" height="120" fill="#f28825"/>
    </g>
    <g transform="matrix(1.2319 0 0 .85833 619.45 144.08)">
     <rect x="1128" y="537" width="60" height="120" fill="#f5c836"/>
    </g>
    <g transform="matrix(3.7383 0 0 .42917 -861.43 598.13)">
     <g transform="matrix(.98864 0 0 1 311.11 0)">
      <path d="m350 117h8v21c0 9.934-8.066 18-18 18s-18-8.066-18-18v-21h8v21c0 6.071 4.481 11 10 11s10-4.929 10-11z" fill="#fff"/>
     </g>
     <g transform="matrix(.98864 0 0 -1 354.66 272)">
      <path d="m350 117h8v21c0 9.934-8.066 18-18 18s-18-8.066-18-18v-21h8v21c0 6.071 4.481 11 10 11s10-4.929 10-11z" fill="#fff"/>
     </g>
     <g transform="matrix(.98864 0 0 1 -1320.1 -98)">
      <path d="m1931 253h-7v-18h0.03c-0.02-0.331-0.03-0.665-0.03-1v-36h8v20.003c3.34-2.513 7.5-4.003 12-4.003 11.04 0 20 8.962 20 20s-8.96 20-20 20c-4.78 0-9.17-1.681-12.61-4.483zm12.5-32c6.9 0 12.5 5.825 12.5 13s-5.6 13-12.5 13-12.5-5.825-12.5-13 5.6-13 12.5-13z" fill="#fff"/>
     </g>
     <g transform="matrix(-.98864 0 0 -1 2658.1 370)">
      <path d="m1931 253h-7v-18h0.03c-0.02-0.331-0.03-0.665-0.03-1v-36h8v20.003c3.34-2.513 7.5-4.003 12-4.003 11.04 0 20 8.962 20 20s-8.96 20-20 20c-4.78 0-9.17-1.681-12.61-4.483zm12.5-32c6.9 0 12.5 5.825 12.5 13s-5.6 13-12.5 13-12.5-5.825-12.5-13 5.6-13 12.5-13z" fill="#fff"/>
     </g>
    </g>
   </g>
  </g>
 </g>
 <path d="m36.31 5c5.859 4.062 9.688 10.831 9.688 18.5 0 12.426-10.07 22.5-22.5 22.5-7.669 0-14.438-3.828-18.5-9.688 1.037 1.822 2.306 3.499 3.781 4.969 4.085 3.712 9.514 5.969 15.469 5.969 12.703 0 23-10.298 23-23 0-5.954-2.256-11.384-5.969-15.469-1.469-1.475-3.147-2.744-4.969-3.781zm4.969 3.781c3.854 4.113 6.219 9.637 6.219 15.719 0 12.703-10.297 23-23 23-6.081 0-11.606-2.364-15.719-6.219 4.16 4.144 9.883 6.719 16.219 6.719 12.703 0 23-10.298 23-23 0-6.335-2.575-12.06-6.719-16.219z" opacity=".05"/>
 <path d="m41.28 8.781c3.712 4.085 5.969 9.514 5.969 15.469 0 12.703-10.297 23-23 23-5.954 0-11.384-2.256-15.469-5.969 4.113 3.854 9.637 6.219 15.719 6.219 12.703 0 23-10.298 23-23 0-6.081-2.364-11.606-6.219-15.719z" opacity=".1"/>
 <path d="m31.25 2.375c8.615 3.154 14.75 11.417 14.75 21.13 0 12.426-10.07 22.5-22.5 22.5-9.708 0-17.971-6.135-21.12-14.75a23 23 0 0 0 44.875-7 23 23 0 0 0-16-21.875z" opacity=".2"/>
 <path d="m40.03 7.531c3.712 4.084 5.969 9.514 5.969 15.469 0 12.703-10.297 23-23 23-5.954 0-11.384-2.256-15.469-5.969 4.178 4.291 10.01 6.969 16.469 6.969 12.703 0 23-10.298 23-23 0-6.462-2.677-12.291-6.969-16.469z" opacity=".1"/>
</svg>
