<svg width="512mm" height="512mm" viewBox="0 0 512 512" xmlns="http://www.w3.org/2000/svg">
  <g transform="matrix(.95452 0 0 .95452 34.17 34.17)">
    <circle style="fill:#1972e6" r="232.39999" cy="232.39999" cx="232.39999" class="st0"/>
    <path style="fill:#1759bb" d="M343.9 333.4v-19.7c0-6.8-2.4-13.5-6.8-18.7-4.1-4.9-9.4-10.6-13.7-13.9-19-14.4-46.8-23.6-79.5-26.3-11.9-1-16.2-.9-28.5.5-39.2 4.5-69.2 18.1-84.8 38.4-.6.8-1.2 1.5-1.7 2.2-3.9 5.1-6 11.3-6 17.7v19.9c0 16.9 13.7 30.6 30.6 30.6h159.9c16.8-.2 30.5-13.9 30.5-30.7z" class="st1"/>
    <circle style="fill:#1759bb" r="51" cy="174.5" cx="232.39999" class="st1"/>
    <g>
      <path style="fill:#fff" d="M343.9 320.4v-19.7c0-6.8-2.4-13.5-6.8-18.7-4.1-4.9-9.4-10.6-13.7-13.9-19-14.4-46.8-23.6-79.5-26.3-11.9-1-16.2-.9-28.5.5-39.2 4.5-69.2 18.1-84.8 38.4-.6.8-1.2 1.5-1.7 2.2-3.9 5.1-6 11.3-6 17.7v19.9c0 16.9 13.7 30.6 30.6 30.6h159.9c16.8-.1 30.5-13.8 30.5-30.7z" class="st2"/>
      <circle style="fill:#fff" r="51" cy="161.5" cx="232.39999" class="st2"/>
    </g>
  </g>
</svg>

