<svg height="512" width="512" xmlns="http://www.w3.org/2000/svg">
  <g transform="matrix(8 0 0 8 0 -4)" style="fill:#fecc00">
    <circle style="opacity:.2;fill:#fecc00" cx="32" cy="33" r="28"/>
    <circle style="fill:#fecc00" cx="32" cy="32" r="28"/>
    <path style="opacity:.2;fill:#fecc00" d="M32 4A28 28 0 0 0 4 32a28 28 0 0 0 .018.492A28 28 0 0 1 32 5a28 28 0 0 1 27.975 27.492A28 28 0 0 0 60 32 28 28 0 0 0 32 4Z"/>
  </g>
  <g style="clip-rule:evenodd;fill-rule:evenodd;stroke-linejoin:round;stroke-miterlimit:1.41421">
    <path d="M0 36.6h34.4l-2 2.8H0ZM283.5 39.4h-42.1l2.1-2.8h40zM0 31.4h38.3l-2.1 2.8H0ZM0 26.2h42.2L40.1 29H0ZM283.5 34.2h-38.2l2.1-2.8h36.1zM251.3 26.2h32.2V29h-34.3zM37.1 39.4l18.2-24.3h22.6c2.5 0 2.5.9 1.2 2.6-1.2 1.6-3.3 4.5-4.6 6.2-.6.9-1.8 2.4 2 2.4h30.2c-2.5 3.4-10.7 13.2-25.3 13.2-11.8-.1-44.3-.1-44.3-.1ZM141.3 26.2l-9.9 13.2h-26l9.9-13.2zM178.9 26.2 169 39.4h-26l9.9-13.2zM187.4 26.2s-1.9 2.6-2.8 3.8c-3.3 4.3-.4 9.4 10.3 9.4h41.8l9.9-13.2z" style="fill:#d40511;fill-rule:nonzero" transform="translate(34.188 215.652) scale(1.56481)"/>
    <path d="m49.9 0-9.1 12.1h49.4c2.5 0 2.5.9 1.2 2.6-1.2 1.6-3.3 4.5-4.6 6.2-.6.8-1.8 2.4 2 2.4H109l6-8c3.7-4.9.3-15.2-12.9-15.2C90.2 0 49.9 0 49.9 0ZM181.2 23.2h-63.7L134.9 0h26L151 13.3h11.6l10-13.3h26zM234.6 0l-17.4 23.2h-27.6L207 0Z" style="fill:#d40511;fill-rule:nonzero" transform="translate(34.188 215.652) scale(1.56481)"/>
  </g>
</svg>

