<svg height="512" width="512" xml:space="preserve" y="0" x="0" id="Content" version="1.1" xmlns="http://www.w3.org/2000/svg">
  <style id="style2" type="text/css">
    .st3{fill:#185abc}
  </style>
  <g transform="matrix(.0804 0 0 .0804 27.7 26.386)" id="g30">
    <path id="path8" d="M5678.5 3008.8c-92.9 1566.1-1437.7 2760.4-3003.8 2667.5C1108.6 5583.5-85.7 4238.6 7.2 2672.5 96.3 1170.1 1341.7-2 2846.7 0h2378.7c251.2 1 454.1 205.4 453.1 456.6v1.8z" style="fill:#1a73e8"/>
    <path id="path10" d="M5225.4 8.9H2837.9C1273.9 8.9 6.1 1276.7 6.1 2840.7 20.6 1287.1 1284.2 35.3 2837.9 35.4h2387.6c251.2 1 454.1 205.4 453.1 456.6v-33.6c-3-248.4-204.7-448.6-453.2-449.5Z" style="opacity:.2;fill:#fff;enable-background:new"/>
    <g id="g14">
      <path id="path12" d="M5678.5 3008.8v-72.6c-35.7 1567.9-1335.6 2810-2903.5 2774.3C1207.2 5674.8-34.9 4374.9.7 2807v31.9c6.7 1568.8 1283.8 2835.2 2852.7 2828.6 1509.3-6.4 2750.1-1192 2825.1-2699.4" style="fill:#1a237e;fill-opacity:.2"/>
    </g>
    <path id="path16" d="M3997.1 3396.4c.6 249.3-200.9 451.8-450.2 452.4-11 0-22-.3-33-1.1H1903.4c-248.6 17.6-464.5-169.7-482.1-418.3-.7-10.4-1.1-20.8-1.1-31.2v159.3c-2.9 263.9 208.6 480.2 472.5 483.2H3515.8c263.9 2 479.5-210.4 481.4-474.3v-170z" class="st3"/>
    <path id="path18" d="M4774.1 3525.6c-3.2 52.7-48.4 92.8-101.1 89.7-22.4-1.3-43.6-10.5-59.9-26l-615.9-612.4V3138l612.4 612.4c33.6 38.1 91.7 41.8 129.9 8.2 20.6-18.1 32-44.5 31.2-72z" class="st3"/>
    <g id="g28">
      <path id="path20" d="m4613.1 1977-615.9 605.3v387.6l612.4 612.4c36.1 37.2 95.5 38 132.6 1.9 17.8-17.3 28-40.8 28.4-65.6V2040.7c-4.8-52.6-51.3-91.3-103.9-86.5-19.8 1.8-38.6 9.8-53.6 22.8z" style="fill:#f1f3f4"/>
      <path id="path22" d="M3515.7 1686.7H1903.4c-266.9 0-483.2 216.3-483.2 483.2v1226.5c-1 265.9 213.8 482.2 479.6 483.2h1615.9c266.2-1 481.4-217 481.4-483.2V2169.9c1-265.9-213.8-482.2-479.6-483.2h-1.8z" style="fill:#fff"/>
      <g id="g26">
        <path id="polygon24" style="fill:#bdc1c6" d="M4000.7 3015.9v-39l129.2 129.2v-646l-129.2 129.2z"/>
      </g>
    </g>
  </g>
</svg>

