<svg xmlns="http://www.w3.org/2000/svg" width="64" height="64">
  <defs>
    <filter style="color-interpolation-filters:sRGB" id="e">
      <feFlood flood-opacity="0.203922" flood-color="#000" result="flood"/>
      <feComposite in="flood" in2="SourceGraphic" operator="in" result="composite1"/>
      <feGaussianBlur in="composite1" result="blur"/>
      <feOffset dx="2.77556e-17" dy="1" result="offset"/>
      <feComposite in="SourceGraphic" in2="offset" result="fbSourceGraphic"/>
      <feColorMatrix result="fbSourceGraphicAlpha" in="fbSourceGraphic" values="0 0 0 -1 0 0 0 0 -1 0 0 0 0 -1 0 0 0 0 1 0"/>
      <feFlood flood-opacity="0.203922" flood-color="#FFF" result="flood"/>
      <feComposite in2="fbSourceGraphic" in="flood" operator="out" result="composite1"/>
      <feGaussianBlur in="composite1" result="blur"/>
      <feOffset dx="2.77556e-17" dy="1" result="offset"/>
      <feComposite in2="fbSourceGraphic" in="offset" operator="atop" result="composite2"/>
    </filter>
    <filter style="color-interpolation-filters:sRGB" id="f">
      <feFlood flood-opacity="0.203922" flood-color="#000" result="flood"/>
      <feComposite in="flood" in2="SourceGraphic" operator="in" result="composite1"/>
      <feGaussianBlur in="composite1" result="blur"/>
      <feOffset dx="2.77556e-17" dy="1" result="offset"/>
      <feComposite in="SourceGraphic" in2="offset" result="fbSourceGraphic"/>
      <feColorMatrix result="fbSourceGraphicAlpha" in="fbSourceGraphic" values="0 0 0 -1 0 0 0 0 -1 0 0 0 0 -1 0 0 0 0 1 0"/>
      <feFlood flood-opacity="0.203922" flood-color="#FFF" result="flood"/>
      <feComposite in2="fbSourceGraphic" in="flood" operator="out" result="composite1"/>
      <feGaussianBlur in="composite1" result="blur"/>
      <feOffset dx="2.77556e-17" dy="1" result="offset"/>
      <feComposite in2="fbSourceGraphic" in="offset" operator="atop" result="composite2"/>
    </filter>
    <filter style="color-interpolation-filters:sRGB" id="b">
      <feFlood flood-opacity="0.203922" flood-color="#000" result="flood"/>
      <feComposite in="flood" in2="SourceGraphic" operator="in" result="composite1"/>
      <feGaussianBlur in="composite1" result="blur"/>
      <feOffset dx="2.77556e-17" dy="1" result="offset"/>
      <feComposite in="SourceGraphic" in2="offset" result="fbSourceGraphic"/>
      <feColorMatrix result="fbSourceGraphicAlpha" in="fbSourceGraphic" values="0 0 0 -1 0 0 0 0 -1 0 0 0 0 -1 0 0 0 0 1 0"/>
      <feFlood flood-opacity="0.203922" flood-color="#FFF" result="flood"/>
      <feComposite in2="fbSourceGraphic" in="flood" operator="out" result="composite1"/>
      <feGaussianBlur in="composite1" result="blur"/>
      <feOffset dx="2.77556e-17" dy="1" result="offset"/>
      <feComposite in2="fbSourceGraphic" in="offset" operator="atop" result="composite2"/>
    </filter>
    <filter style="color-interpolation-filters:sRGB" id="a">
      <feFlood flood-opacity="0.203922" flood-color="#000" result="flood"/>
      <feComposite in="flood" in2="SourceGraphic" operator="in" result="composite1"/>
      <feGaussianBlur in="composite1" result="blur"/>
      <feOffset dx="2.77556e-17" dy="1" result="offset"/>
      <feComposite in="SourceGraphic" in2="offset" result="fbSourceGraphic"/>
      <feColorMatrix result="fbSourceGraphicAlpha" in="fbSourceGraphic" values="0 0 0 -1 0 0 0 0 -1 0 0 0 0 -1 0 0 0 0 1 0"/>
      <feFlood flood-opacity="0.203922" flood-color="#FFF" result="flood"/>
      <feComposite in2="fbSourceGraphic" in="flood" operator="out" result="composite1"/>
      <feGaussianBlur in="composite1" result="blur"/>
      <feOffset dx="2.77556e-17" dy="1" result="offset"/>
      <feComposite in2="fbSourceGraphic" in="offset" operator="atop" result="composite2"/>
    </filter>
    <filter style="color-interpolation-filters:sRGB" id="c">
      <feFlood flood-opacity="0.203922" flood-color="#000" result="flood"/>
      <feComposite in="flood" in2="SourceGraphic" operator="in" result="composite1"/>
      <feGaussianBlur in="composite1" result="blur"/>
      <feOffset dx="2.77556e-17" dy="1" result="offset"/>
      <feComposite in="SourceGraphic" in2="offset" result="fbSourceGraphic"/>
      <feColorMatrix result="fbSourceGraphicAlpha" in="fbSourceGraphic" values="0 0 0 -1 0 0 0 0 -1 0 0 0 0 -1 0 0 0 0 1 0"/>
      <feFlood flood-opacity="0.203922" flood-color="#FFF" result="flood"/>
      <feComposite in2="fbSourceGraphic" in="flood" operator="out" result="composite1"/>
      <feGaussianBlur in="composite1" result="blur"/>
      <feOffset dx="2.77556e-17" dy="1" result="offset"/>
      <feComposite in2="fbSourceGraphic" in="offset" operator="atop" result="composite2"/>
    </filter>
    <filter style="color-interpolation-filters:sRGB" id="d">
      <feFlood flood-opacity="0.203922" flood-color="#000" result="flood"/>
      <feComposite in="flood" in2="SourceGraphic" operator="in" result="composite1"/>
      <feGaussianBlur in="composite1" result="blur"/>
      <feOffset dx="2.77556e-17" dy="1" result="offset"/>
      <feComposite in="SourceGraphic" in2="offset" result="fbSourceGraphic"/>
      <feColorMatrix result="fbSourceGraphicAlpha" in="fbSourceGraphic" values="0 0 0 -1 0 0 0 0 -1 0 0 0 0 -1 0 0 0 0 1 0"/>
      <feFlood flood-opacity="0.203922" flood-color="#FFF" result="flood"/>
      <feComposite in2="fbSourceGraphic" in="flood" operator="out" result="composite1"/>
      <feGaussianBlur in="composite1" result="blur"/>
      <feOffset dx="2.77556e-17" dy="1" result="offset"/>
      <feComposite in2="fbSourceGraphic" in="offset" operator="atop" result="composite2"/>
    </filter>
    <filter style="color-interpolation-filters:sRGB" id="g">
      <feFlood flood-opacity="0.294118" flood-color="#000" result="flood"/>
      <feComposite in="flood" in2="SourceGraphic" operator="in" result="composite1"/>
      <feGaussianBlur in="composite1" result="blur"/>
      <feOffset dx="2.77556e-17" dy="0.5" result="offset"/>
      <feComposite in="SourceGraphic" in2="offset" result="fbSourceGraphic"/>
      <feColorMatrix result="fbSourceGraphicAlpha" in="fbSourceGraphic" values="0 0 0 -1 0 0 0 0 -1 0 0 0 0 -1 0 0 0 0 1 0"/>
      <feFlood flood-opacity="0.294118" flood-color="#FFF" result="flood"/>
      <feComposite in2="fbSourceGraphic" in="flood" operator="out" result="composite1"/>
      <feGaussianBlur in="composite1" result="blur"/>
      <feOffset dx="2.77556e-17" dy="0.5" result="offset"/>
      <feComposite in2="fbSourceGraphic" in="offset" operator="atop" result="composite2"/>
    </filter>
  </defs>
  <path fill="#fff" d="M46.784 17.216H17.216v29.568h29.568z" style="stroke-width:.739204"/>
  <path fill="#ea4335" d="M46.784 60.09 60.09 46.784H46.784z" style="stroke-width:.739204;filter:url(#a)"/>
  <path fill="#fbbc04" d="M60.09 17.216H46.784v29.568H60.09z" style="stroke-width:.739204;filter:url(#b)"/>
  <path fill="#34a853" d="M46.784 46.784H17.216V60.09h29.568z" style="stroke-width:.739204;filter:url(#c)"/>
  <path fill="#188038" d="M3.91 46.784v8.87a4.434 4.434 0 0 0 4.435 4.436h8.87V46.784z" style="stroke-width:.739204;filter:url(#d)"/>
  <path fill="#1967d2" d="M60.09 17.216v-8.87a4.434 4.434 0 0 0-4.435-4.436h-8.87v13.306Z" style="stroke-width:.739204;filter:url(#e)"/>
  <path fill="#4285f4" d="M46.784 3.91H8.345A4.434 4.434 0 0 0 3.91 8.345v38.44h13.306v-29.57h29.568z" style="stroke-width:.739204;filter:url(#f)"/>
  <path fill="#4285f4" d="M23.281 40.153c-1.105-.746-1.87-1.837-2.288-3.278l2.565-1.057c.233.887.64 1.574 1.22 2.062.577.488 1.279.728 2.1.728.838 0 1.559-.255 2.161-.765.603-.51.906-1.16.906-1.947 0-.806-.318-1.464-.954-1.974-.635-.51-1.434-.765-2.387-.765h-1.482v-2.54h1.33c.82 0 1.512-.221 2.074-.665.562-.443.842-1.05.842-1.822 0-.687-.25-1.234-.754-1.644-.502-.41-1.138-.618-1.91-.618-.754 0-1.353.2-1.797.603a3.536 3.536 0 0 0-.968 1.482l-2.54-1.057c.337-.954.954-1.796 1.86-2.525.905-.728 2.062-1.094 3.467-1.094 1.038 0 1.973.2 2.801.603.828.403 1.479.96 1.948 1.67.47.714.702 1.512.702 2.4 0 .905-.218 1.67-.654 2.298a4.508 4.508 0 0 1-1.608 1.445v.152a4.882 4.882 0 0 1 2.063 1.608c.536.72.806 1.581.806 2.587 0 1.005-.255 1.903-.766 2.69-.51.788-1.216 1.409-2.11 1.86-.898.45-1.907.68-3.027.68-1.297.003-2.495-.37-3.6-1.117zm15.756-12.729-2.816 2.037-1.408-2.136 5.052-3.645h1.937v17.19h-2.765z" style="stroke-width:.739204;filter:url(#g)"/>
</svg>

