<svg width="512" height="512" xmlns="http://www.w3.org/2000/svg">
  <defs>
    <filter id="e" color-interpolation-filters="sRGB" x="0" y="0" width="1" height="1">
      <feFlood flood-color="#000" flood-opacity=".2" result="flood"/>
      <feComposite in="flood" in2="SourceGraphic" operator="in" result="composite1"/>
      <feGaussianBlur in="composite1" result="blur"/>
      <feOffset dx=".1" dy=".1" result="offset"/>
      <feComposite in="SourceGraphic" in2="offset" result="composite2"/>
    </filter>
    <filter id="d" color-interpolation-filters="sRGB" x="0" y="0" width="1" height="1">
      <feFlood flood-color="#000" flood-opacity=".2" result="flood"/>
      <feComposite in="flood" in2="SourceGraphic" operator="in" result="composite1"/>
      <feGaussianBlur in="composite1" result="blur"/>
      <feOffset dx=".1" dy=".1" result="offset"/>
      <feComposite in="SourceGraphic" in2="offset" result="composite2"/>
    </filter>
    <filter id="c" color-interpolation-filters="sRGB" x="0" y="0" width="1" height="1">
      <feFlood flood-color="#000" flood-opacity=".2" result="flood"/>
      <feComposite in="flood" in2="SourceGraphic" operator="in" result="composite1"/>
      <feGaussianBlur in="composite1" result="blur"/>
      <feOffset dx=".1" dy=".1" result="offset"/>
      <feComposite in="SourceGraphic" in2="offset" result="composite2"/>
    </filter>
    <filter id="b" color-interpolation-filters="sRGB" x="0" y="0" width="1" height="1">
      <feFlood flood-color="#000" flood-opacity=".2" result="flood"/>
      <feComposite in="flood" in2="SourceGraphic" operator="in" result="composite1"/>
      <feGaussianBlur in="composite1" result="blur"/>
      <feOffset dx=".1" dy=".1" result="offset"/>
      <feComposite in="SourceGraphic" in2="offset" result="composite2"/>
    </filter>
    <filter id="a" color-interpolation-filters="sRGB" x="0" y="0" width="1" height="1">
      <feFlood flood-color="#000" flood-opacity=".2" result="flood"/>
      <feComposite in="flood" in2="SourceGraphic" operator="in" result="composite1"/>
      <feGaussianBlur in="composite1" result="blur"/>
      <feOffset dx=".1" dy=".1" result="offset"/>
      <feComposite in="SourceGraphic" in2="offset" result="composite2"/>
    </filter>
  </defs>
  <g stroke-width=".2">
    <path d="M19.266 5.381a3.532 3.532 0 0 0-3.777 1.098l1.67 1.405z" fill="#1a73e8" filter="url(#a)" transform="translate(-592.982 -223.876) scale(46.656)"/>
    <path d="M15.489 6.48a3.524 3.524 0 0 0-.828 2.272c0 .664.132 1.204.35 1.686l2.148-2.554z" fill="#ea4335" filter="url(#b)" transform="translate(-592.982 -223.876) scale(46.656)"/>
    <path d="M18.197 7.402a1.353 1.353 0 0 1 1.032 2.226l2.105-2.502a3.537 3.537 0 0 0-2.07-1.742L17.16 7.886a1.348 1.348 0 0 1 1.036-.484" fill="#4285f4" filter="url(#c)" transform="translate(-592.982 -223.876) scale(46.656)"/>
    <path d="M18.197 10.106a1.353 1.353 0 0 1-1.352-1.352 1.34 1.34 0 0 1 .316-.868l-2.15 2.554c.368.814.978 1.468 1.606 2.292l2.612-3.104a1.35 1.35 0 0 1-1.032.478" fill="#fbbc04" filter="url(#d)" transform="translate(-592.982 -223.876) scale(46.656)"/>
    <path d="M19.178 13.579c1.18-1.844 2.554-2.683 2.554-4.827a3.52 3.52 0 0 0-.398-1.63l-4.714 5.61c.2.263.402.541.598.85.716 1.107.518 1.771.98 1.771.462 0 .264-.666.98-1.774" fill="#34a853" filter="url(#e)" transform="translate(-592.982 -223.876) scale(46.656)"/>
  </g>
</svg>

