<svg width="64" height="64" xmlns="http://www.w3.org/2000/svg">
  <defs>
    <clipPath id="b">
      <path d="M269.17 448.94h34.002v-24.003H269.17v24.003"/>
    </clipPath>
    <clipPath id="c">
      <path d="M269.17 448.94h34.002v-24.003H269.17v24.003"/>
    </clipPath>
    <clipPath id="d">
      <path d="M269.17 448.94h34.002v-24.003H269.17v24.003"/>
    </clipPath>
    <filter id="a" x="-.0117" y="-.0165" width="1.0171" height="1.0399" color-interpolation-filters="sRGB">
      <feFlood flood-color="#000" result="flood"/>
      <feComposite in="flood" in2="SourceGraphic" operator="in" result="composite1"/>
      <feGaussianBlur in="composite1" result="blur" stdDeviation=".5"/>
      <feOffset dy=".5" result="offset"/>
      <feComposite in="SourceGraphic" in2="offset" result="composite2"/>
    </filter>
  </defs>
  <g transform="translate(-5.9374 -6.3012) scale(.59277)" filter="url(#a)">
    <path d="m27.666 59.892 3.5369-2.2507c2.6999-15.421 16.523-27.198 33.12-27.198 16.597 0 30.422 11.777 33.118 27.201l3.5487 2.2537.1406.0644c-2.239-17.841-17.891-31.702-36.808-31.702-18.918 0-34.569 13.861-36.808 31.699l.1507-.0674" fill="#2b9edc"/>
    <path d="m27.5306 59.749 3.537-2.2508.2412.3792-3.537 2.2507-.2412-.3792zm3.436-2.1c2.72-15.531 16.636-27.3829 33.3404-27.3835v.4496c-16.4886-.0007-30.2177 11.7014-32.897 27.0114l-.4428-.0777zm.4428.0777-.018.0977-.0836.0533-.1208-.1897.2215.0387zm32.897-27.4609c16.7053.0005 30.6223 11.8524 33.3405 27.3866l-.4429.0773C94.5277 42.417 80.796 30.7144 64.307 30.7153v-.4496zm0 .4496v-.2248zm33.2386 26.786 3.5486 2.2536-.241.3796-3.5486-2.2537.241-.3795zm-.241.3795-.0836-.0533-.018-.0977.2215-.0387-.1205.1897zm3.763 1.8596.1405.0644-.1876.4087-.1406-.0645.1876-.4086zm-.1877.4086-.015-.006-.012-.009.1205-.1897-.0938.2044zm.012-.1118C98.6679 42.3124 83.1122 28.531 64.308 28.534v-.4496c19.0283.0007 34.776 13.9413 37.0297 31.899l-.446.056zm.446-.056.0503.4006-.367-.1685.0938-.2044.223-.027zM64.3076 28.5318C45.501 28.5311 29.945 42.3115 27.7244 60.0352l-.446-.056c2.2545-17.9545 18.0006-31.896 37.0297-31.896v.4496zm0-.4496v.2247zM27.4097 59.8014l.1508-.0675.1834.4103-.1508.0674zm.1834.4102-.3647.163.05-.396.223.027.0917.2049zm.1796-.083-.015.009-.015.006-.0917-.205.1208.1897z" fill="#040404"/>
    <path d="M93.9119 78.6594c-5.6776 10.255-16.815 17.2412-29.5974 17.2412-12.782 0-23.9194-6.9861-29.5989-17.2412-1.1575.7201-2.3062 1.481-3.3715 2.2567 6.1664 11.6247 18.6297 19.591 32.972 19.591 14.3392 0 26.8024-7.9663 32.9718-19.591-1.067-.7756-2.2157-1.5366-3.3745-2.2567" fill="#2b9edc"/>
    <path d="M94.0917 78.7793C88.3748 89.105 77.1634 96.136 64.2977 96.1364v-.4496c12.6991.0004 23.7625-6.9408 29.4008-17.1252l.3933.2176zm-29.794 17.3571c-12.8657 0-24.0768-7.0313-29.7954-17.3568l.3932-.218c5.6399 10.1845 16.7035 17.1256 29.402 17.1253v.4496zm0-.4496v.2248zM34.8178 78.8613c-1.1538.718-2.298 1.476-3.3577 2.2476l-.2646-.3635c1.071-.7796 2.2239-1.5434 3.3853-2.2658zm-.2373-.3817.2008-.125.1145.2068-.1966.1088-.1187-.191zm-3.0542 2.3422c6.1278 11.5519 18.516 19.4718 32.7711 19.4715v.4496c-14.425-.0001-26.9637-8.0131-33.1697-19.7103l.3971-.2107zm-.397.2107-.0915-.1723.1577-.1148.1324.1816zm33.1696 19.2608c14.2545.0003 26.6428-7.9196 32.7741-19.4715l.3972.2107c-6.2084 11.6972-18.7466 19.7103-33.1697 19.7103v-.4496zm0 .4496v-.2248zm32.84-19.634c-1.0614-.7718-2.2057-1.5296-3.361-2.2476l.2374-.3817c1.1625.7223 2.3156 1.4862 3.388 2.2657l-.2643.3637zm.2644-.3636.158.1148-.0915.1724-.1987-.1055.1322-.182zM93.7 78.5616l.1145-.2068.2008.1247-.1187.191z"/>
    <path d="M68.809 47.6775c0 1.993-2.0106 3.6086-4.4897 3.6086-2.4802 0-4.4893-1.6155-4.4893-3.6086 0-1.993 2.009-3.6057 4.4893-3.6057 2.4791 0 4.4897 1.6126 4.4897 3.6057" fill="#2b9edc"/>
    <path d="M69.033 47.6775c-.0119 2.1604-2.1456 3.8323-4.7143 3.8333v-.4496c1.1905.0004 2.2647-.3888 3.0337-1.0073.77-.6197 1.2308-1.4582 1.2312-2.3765h.4496zm-4.7143 3.8333c-2.57-.0008-4.7034-1.6731-4.7141-3.8333h.4495c.0003.9184.461 1.7568 1.2306 2.3765.7686.6183 1.8425 1.0075 3.034 1.0072v.4496zm0-.4496v.2248zm-4.7141-3.3837c.012-2.16 2.1445-3.83 4.714-3.8303v.4496c-1.1913-.0003-2.2654.388-3.034 1.0058-.7693.6192-1.2303 1.4566-1.2305 2.375h-.4496zm.4495 0h-.2247zm4.2645-3.8303c2.5685.0004 4.7037 1.6704 4.7144 3.8303h-.4495c-.0005-.9184-.461-1.7558-1.2312-2.3749-.7688-.6177-1.8431-1.006-3.0337-1.0058v-.4496zm0 .4496v-.2248zm4.2648 3.3807h.2248z"/>
    <path d="M52.067 38.2247c.3203.6321 1.0081 1.4691 1.3198 1.8847.5574-.3863 2.0603-1.235 2.843-1.5891-.19-.4419-.2193-1.4691-.3979-2.0955-1.3477.48-2.8299 1.2263-3.765 1.8" fill="#2b9edc"/>
    <path d="M52.267 38.122c.2997.5955.9829 1.4309 1.2993 1.8514l-.3596.2698c-.3072-.4107-.9997-1.249-1.3406-1.918l.401-.2032zm.9914 1.8015c.5792-.4005 2.075-1.2444 2.8785-1.6092l.1852.4095c-.7621.344-2.2722 1.1968-2.8077 1.5692l-.2559-.3695zm.256.3695-.178.1232-.1301-.173.1798-.1348.128.1846zm2.5084-1.685c-.2151-.5243-.2361-1.5371-.4075-2.1227l.4322-.1232c.1855.6673.2239 1.709.3883 2.0683l-.413.1777zm.413-.1778.0873.2026-.2008.0911-.0926-.2047.2065-.0887zm-.529-1.795c-1.3277.4726-2.8033 1.2152-3.723 1.78l-.2349-.3833c.9504-.5826 2.4398-1.3327 3.8072-1.82l.1507.4234zm-.1507-.4234.226-.0806.0656.2307-.216.0618-.0756-.2119zm-3.89 2.1133-.0939-.185.1768-.1081.1175.1915-.2005.1016z" fill="#2d2d2d"/>
    <path d="M34.7193 59.6616c.9688-.7345 3.1814-2.3238 4.1106-2.9707-1.355-.1756-3.4021-.2193-5.063.2428-.982.6088-2.416 1.5572-3.6057 2.2974 1.437.0731 3.43.1816 4.5581.4303" fill="#2b9edc"/>
    <path d="M34.5825 59.4837c.9741-.7386 3.1853-2.3267 4.118-2.976l.2567.369c-.9258.644-3.1394 2.2349-4.1031 2.9652l-.2715-.3582zM38.8 56.915c-1.3314-.1735-3.3622-.2143-4.974.2364l-.1204-.433c1.7097-.4741 3.7734-.4266 5.1523-.2491l-.0579.4457zm.0578-.4458.5773.075-.4778.3324-.1283-.1846.03-.223zm-4.9736.6568c-.9772.6059-2.4118 1.5544-3.6053 2.2973l-.2373-.3818c1.186-.7378 2.6191-1.6858 3.6058-2.2976l.2368.3821zm-.2367-.3821.027-.018.0308-.009.0603.2166-.1184-.1912zm-3.4757 2.264c1.4401.0738 3.4326.1805 4.595.4353l-.0967.439c-1.0936-.2421-3.0873-.3529-4.5212-.4253l.024-.4489zm-.024.449-.7162-.0375.609-.378.1186.191-.012.2245zm4.7054.385-.0827.0628-.1013-.021.0482-.2196.1358.1792z"/>
    <path d="M39.6997 56.0939c.2575-.1756.8268-.5679 1.1517-.7874.9848-.673 2.198-1.5189 2.7438-1.911-1.1416-.1874-2.9487-.2431-4.3989.0497-.9115.6352-2.1115 1.6478-3.1709 2.3209 1.2233.1052 2.7745.1025 3.6744.3277" fill="#2b9edc"/>
    <path d="M39.5732 55.9092c.2565-.175.826-.5672 1.1524-.7879l.2517.3725c-.3231.2184-.8925.6107-1.1509.7869zm1.1514-.7872c.9834-.6721 2.1967-1.518 2.7395-1.908l.2622.3651c-.5486.3943-1.7617 1.2397-2.748 1.914l-.254-.3711zm.2538.3711-.0005.0003-.0005.0004-.1259-.1862.1268.1855zm2.5805-1.8748c-1.1129-.184-2.9079-.2376-4.318.0482l-.089-.4406c1.4905-.2994 3.309-.2421 4.4798-.0512l-.0728.4436zm.0728-.4436.5351.0876-.4403.3167-.1313-.1825.0363-.2218zm-4.3069.4559c-.8985.6253-2.1005 1.6404-3.1789 2.3261l-.2412-.3793c1.0406-.6605 2.238-1.6708 3.163-2.3156l.2571.3688zm-.257-.3688.0383-.027.0458-.009.0444.2202-.1286-.1843zm-3.0232 2.2814c1.2114.1058 2.7589.0983 3.7096.3337l-.109.436c-.8491-.2154-2.404-.2169-3.639-.3217l.0386-.448zm-.0387.448-.6628-.057.5616-.3566.1204.1897-.018.2238zm3.8203.2895-.0833.0569-.098-.024.0546-.2182.1264.1859z"/>
    <path d="M50.892 42.4098c.3526-.4243 1.4148-1.475 2.0061-1.9404-.4375-.3746-.938-1.2701-1.434-1.7999-.9438.6879-2.0178 1.5746-2.5548 2.201.5371.4945 1.5626 1.1735 1.9828 1.5393" fill="#2b9edc"/>
    <path d="M50.7192 42.2661c.3717-.4457 1.427-1.489 2.0399-1.9733l.278.3532c-.5694.4465-1.6387 1.5042-1.9722 1.9073l-.3457-.2874zm2.0329-1.626c-.4892-.4277-.9804-1.3188-1.4519-1.817l.3281-.3072c.5204.5613 1.0302 1.461 1.416 1.7828l-.2921.3415zm.2922-.3414.208.178-.2152.1693-.139-.1765.1462-.1708zm-1.4478-1.4475c-.9343.6799-2.0052 1.5672-2.5166 2.1656l-.3413-.2925c.563-.654 1.6399-1.5404 2.5934-2.2362l.2646.3632zm-.2647-.3633.1607-.1172.1357.145-.1642.1538-.1324-.1816zm-2.2702 2.2172c.514.4752 1.5354 1.1514 1.9781 1.5352l-.2952.339c-.3973-.348-1.4274-1.0294-1.9875-1.5435l.3046-.3307zm-.3046.3307-.1594-.1468.1411-.1648.1709.1462-.1523.1654zm2.308 1.5177-.147.1768-.1735-.151.1478-.1697.1729.1436z"/>
    <path d="M44.415 52.7759c.6878-.562 2.0238-2.1774 2.4966-2.9296-.8957-.0965-1.8614-.4945-3.1095-.1903-.4054.4245-1.3406 1.3288-1.8485 1.7355l-1.0229 1.0039c1.1752.1315 2.6488.1492 3.4842.3804" fill="#2b9edc"/>
    <path d="M44.273 52.6014c.65-.5265 1.9979-2.1532 2.4485-2.8751l.3807.2391c-.4951.7825-1.8189 2.3867-2.5447 2.9841l-.2845-.348zm2.6148-2.532c-.945-.1082-1.8588-.483-3.0322-.1955l-.1064-.4368c1.3225-.3208 2.3407.1004 3.1868.1853l-.0482.4468zm.0482-.447.3576.0384-.1912.3047-.1903-.1196.024-.2233zm-2.9711.1886c-.414.4327-1.3452 1.3346-1.8704 1.7556l-.2808-.3508c.4906-.3924 1.4296-1.2992 1.8264-1.7155l.325.3106zm-.325-.3106.0455-.0473.0638-.015.0534.2184-.1624-.1552zm-1.5286 2.0512-1.0228 1.004-.3148-.321 1.0229-1.0039zm-.3148-.3208.0091-.0091.009-.006.1406.1753-.1573-.1603zm-.8404.941c1.1616.1315 2.6301.1447 3.5192.3871l-.12.4333c-.782-.2196-2.261-.2421-3.4493-.3738l.05-.4467zm-.05.4466-.47-.0524.3377-.3313.1573.1604-.024.2232zm3.6515.3312-.0902.0734-.112-.0308.0599-.2167.1423.1741z" fill="#070707"/>
    <path d="M48.9696 45.6457c.174-.4099.4726-1.0742.6643-1.396l.0467-.0822c.1843-.3131.5838-.9277.8457-1.2907-.534-.2574-1.3564-.9394-2.0338-1.3579-.268.3804-.7157.9102-.8707 1.1706-.2985.5034-.5664 1.1502-.8781 1.8906.6716.3248 1.7691.7784 2.2258 1.0654" fill="#2b9edc"/>
    <path d="M48.7626 45.5584c.1774-.4157.4731-1.0778.6782-1.4231l.3861.2301c-.1786.2985-.4794.9648-.6505 1.3688l-.4138-.1759zm.676-1.4196.0468-.0818.3903.223-.0467.082-.3904-.2229zm.3904.223-.001.0019-.001.0017-.193-.1151.195.1115zm-.342-.3074c.19-.323.589-.9363.8571-1.3083l.3646.2631c-.2554.354-.6563.9696-.8343 1.2732l-.3874-.228zm-.0015.0024.0007-.0013.0008-.0012.1936.114-.1951-.1116zm.9433-.9768c-.5797-.2832-1.3942-.963-2.0544-1.3691l.2361-.3825c.6945.4308 1.5248 1.1147 2.0134 1.3467l-.195.405zm.195-.405.2416.1166-.157.2176-.1822-.1316.0977-.2025zm-1.9476-1.026c-.276.3907-.7281.929-.8613 1.1562l-.3863-.2299c.1768-.293.62-.815.8801-1.185l.3675.259zm-.3675-.2588.122-.173.1798.1112-.118.1912-.1838-.1294zm-.4936 1.4146c-.2862.4816-.5528 1.1218-.8643 1.863l-.4142-.1744c.3114-.74.5813-1.3926.8918-1.918l.3867.2292zm-.3867-.2292.0002-.0001v-.0002l.1933.115-.1933-.1147zm-.5868 1.803c.664.322 1.756.7707 2.2475 1.0773l-.2392.3807c-.4216-.267-1.5253-.7256-2.204-1.0535l.1956-.4046zm-.1957.4046-.1921-.0926.0827-.197.207.0873-.0976.2023zm2.5305.951-.103.2427-.2233-.1403.1195-.1903.2068.0878z"/>
    <path d="M47.2986 49.1843c.401-.7318 1.1606-2.359 1.4298-2.9825-.5443-.1462-1.5146-.5998-2.2654-.8896-.4477 1.001-1.137 2.3062-1.9665 3.4299 1.0213.0467 2.1187.3131 2.8021.442" fill="#2b9edc"/>
    <path d="M47.102 49.0765c.3932-.7176 1.1554-2.3484 1.4205-2.9634l.4127.1783c-.273.632-1.0308 2.2549-1.439 3.0012l-.3943-.216zm1.5685-2.6573c-.5816-.158-1.5455-.6112-2.288-.897l.1618-.4193c.7593.2937 1.7356.7475 2.2429.8822l-.1166.4341zm.1166-.434.2508.0674-.103.2388-.2063-.089.0585-.217zm-2.1186-.5809c-.4532 1.0126-1.1477 2.3291-1.9908 3.4716l-.3616-.2667c.816-1.105 1.4997-2.3994 1.9422-3.3883l.4103.1834zm-.4102-.1834.0869-.1948.199.0767-.081.2098-.205-.0917zm-1.751 3.2971c1.0509.0489 2.1589.3191 2.8332.4457l-.0833.4417c-.6926-.131-1.7789-.3933-2.7708-.4383l.021-.449zm-.021.449-.4204-.0179.2499-.3387.1807.1333-.009.2245zm3.0094.3256-.0785.1432-.1603-.0302.0417-.221.1971.108z"/>
    <path d="M27.7276 63.3524c.4259.047 1.7794.003 2.5725.0791.8048-.7812 2.7437-2.4584 3.6948-3.2106-.1768-.024-3.8718-.3599-5.6059.199-1.1019.4244-3.111 1.5452-4.1646 2.2212l-1.0345.7171c1.232-.0323 3.1856-.1522 4.5377-.006" fill="#2b9edc"/>
    <path d="M27.7516 63.1283c.3886.045 1.7544.0013 2.5692.0789l-.0429.4473c-.7714-.0746-2.1124-.0302-2.5757-.0794l.0495-.4468zm2.3913.1412c.8162-.7918 2.7516-2.4656 3.7119-3.2256l.279.3526c-.9418.7444-2.8843 2.4247-3.6777 3.1954l-.3131-.3225zm.3132.3225-.0747.0725-.1037-.009.021-.2236.1567.1612zm3.5086-3.149c-.1477-.024-3.8657-.3495-5.5075.19l-.1378-.4279c1.8264-.578 5.4983-.2307 5.7042-.208l-.059.4456zm.059-.4456.527.0695-.417.3295-.1393-.1762.03-.2227zm-5.5545.6315c-1.071.4112-3.0848 1.533-4.1238 2.2007l-.2428-.3783c1.0679-.6845 3.0727-1.8044 4.2053-2.2419l.1615.4194zm-.1615-.4194.006-.0024.006-.0019.0689.214-.0806-.2098zm-3.9557 2.6157-1.0346.7172-.256-.3695 1.0346-.7172zm-.256-.3695.0062-.0044.1214.189-.128-.1845zm-.9124.6772c1.2271-.0315 3.184-.1535 4.5677-.006l-.0482.4469c-1.3203-.1433-3.2704-.027-4.5077.006l-.012-.4495zm.012.4494-.7531.018.6192-.4287.128.1846.006.2248zm4.556-.4541h.0006l-.024.2236.024-.2236z"/>
    <path d="M26.734 78.2166c-1.0318.6965-6.0275 4.0943-7.2625 5.236-1.5218 1.3988-2.5492 2.461-2.8885 4.2141 0 1.8791.7243 4.9257 2.318 6.8718 1.1589-5.3267 8.1813-11.37 10.1451-13.0325l-.0731-.0788c-.9087-.9511-1.8307-2.3937-2.2388-3.2106" fill="#2b9edc"/>
    <path d="M26.8588 78.403c-1.0261.6923-6.034 4.1006-7.2356 5.2147l-.305-.3301c1.268-1.1692 6.252-4.556 7.2892-5.2571l.2515.3725zm-7.2361 5.215c-1.5232 1.4005-2.4936 2.4145-2.82 4.0915l-.4413-.0855c.3524-1.829 1.4369-2.9394 2.957-4.337l.3043.331zm.0004-.0003-.0001.0002-.0003.0002-.1522-.1654.1525.165zm-2.8163 4.0492c-.003 1.8264.72 4.8492 2.267 6.7293l-.3479.2846c-1.6403-2.0125-2.3643-5.0825-2.3687-7.0142h.4496zm-.4496 0v-.021l.003-.021.2206.0428h-.2248zm2.323 6.824c1.2056-5.4546 8.2499-11.4785 10.2196-13.1563l.2904.3432c-1.9578 1.6467-8.9582 7.71-10.0707 12.9087l-.4392-.0956zm.4392.0956-.0986.4549-.2949-.3602.1739-.1423.2196.0476zm9.7609-12.9274-.0731-.0788.3294-.3059.0731.0788-.3294.3059zm.3294-.3059.1603.1727-.1798.1519-.1453-.1717.1648-.1529zm-.4004.2293c-.9328-.9782-1.8564-2.4255-2.2774-3.2653l.402-.2011c.3953.7938 1.3157 2.2316 2.2003 3.1557l-.325.3106zm.325-.3106.0012.0012.001.0012-.1648.1528.1624-.1552zm-2.527-3.2415.2124-.1433.1145.229-.2011.1004-.1259-.1864z"/>
    <path d="M56.5975 36.1484c-.0453.7638.1052 1.633.1873 2.043.8005-.3162 3.97-1.0947 3.97-1.0947V35.329c-1.5628.237-2.9383.4536-4.1573.8193" fill="#2b9edc"/>
    <path d="M56.8216 36.162c-.0441.7262.1025 1.585.1834 1.9855l-.4408.0884c-.0834-.4192-.238-1.2988-.1912-2.1002l.4486.027zm-.1196 1.8207c.8378-.3287 3.9929-1.102 3.9988-1.104l.1073.4367-.009.0022-.024.006-.1022.024-.3693.0923c-.3091.0779-.7296.1849-1.1749.3016-.8882.2325-1.8856.509-2.2596.6575l-.1651-.418zm.1651.418-.25.0987-.053-.2635.2206-.044.0827.2092zm3.6625-1.3036v-1.7676h.4495v1.7676zm.4495 0v.1762l-.171.042-.0537-.2182h.2247zm-.1909-1.5454c-1.5622.2368-2.9289.4528-4.1262.8124l-.1292-.4305c1.2402-.3719 2.6246-.589 4.188-.8264l.0674.4445zm-.0674-.4445.2586-.039v.2614h-.2247l-.0339-.2224zm-4.3478 1.0284.0091-.1568.1504-.0452.0645.2152-.2245-.012z"/>
    <path d="M21.6527 69.8532c-2.3252.5649-3.9481.6614-5.4554 2.1745-.8179 1.6153-2.5593 4.0473-2.849 5.8208 1.3332-.8222 2.7291-1.425 4.3973-2.0106 1.0857-.3772 5.8197-1.9665 7.861-2.7127.0269-.9131.4272-3.0378.7448-3.9568-1.8352.237-3.7943.4624-4.6987.6848" fill="#2b9edc"/>
    <g clip-path="url(#b)" transform="matrix(2.9969 0 0 -2.9969 -793.65 1373.5)">
      <path d="M272.06 434.91c-.7861-.1895-1.3036-.2221-1.7849-.7056l-.1063.1058c.5248.5263 1.0901.5582 1.8558.7456zm-1.7711-.6866c-.278-.5456-.855-1.3592-.9436-1.9205l-.148.0242c.1046.6223.69 1.4317.9578 1.9641l.1338-.0677zm-.1338.0677.005.0106.008.008.053-.0529-.0669.034zm-.9232-1.9123c.451.2782.9225.4815 1.4818.6778l.0497-.1415c-.554-.1945-1.014-.3933-1.4528-.664l-.0787.1277zm.0787-.1277-.1398-.0864.0264.1623.074-.012.0394-.0639zm1.4033.8056c.3631.1262 1.9426.6565 2.622.9048l.0514-.1409c-.683-.2496-2.2627-.78-2.6242-.9056l-.0493.1417zm-.0002 0h.0002l.0246-.0708-.0248.0708zm2.573.8366c.0105.319.143 1.0231.2525 1.3425l.1418-.049c-.1024-.2938-.2365-1.0075-.2445-1.298l-.1499.005zm.1498-.005-.001-.0507-.0477-.0174-.0258.0704.075-.002zm.1832 1.2482c-.6122-.079-1.2679-.1548-1.5596-.227l-.0358.1458c.3118.0763.9638.1507 1.5762.23l.0192-.1488zm-.0192.1488.12.0155-.0394-.1144-.071.0245-.01.0744zm-1.5404-.3757h-.0002l-.0177.0728.0179-.0728z"/>
    </g>
    <path d="M14.544 79.708c-.2415 1.5219-1.0814 4.5921-.4684 6.4359 1.105-1.2761 2.359-2.2624 3.9541-3.2984 1.2-.7844 7.0957-4.589 8.3556-5.4407-.2853-.7521-.692-2.6018-.7491-3.4066-2.1101.793-5.3588 2.0311-6.5456 2.6574-1.8453.9803-3.6393 1.5716-4.5466 3.0524" fill="#2b9edc"/>
    <g clip-path="url(#c)" transform="matrix(2.9969 0 0 -2.9969 -793.65 1373.5)">
      <path d="M269.75 431.68c-.0837-.513-.3555-1.536-.1592-2.1121l-.1423-.0473c-.2128.6544.0759 1.6802.1534 2.1829zm-.287-2.0866c.3745.4328.8.7668 1.3351 1.1144l.0817-.1258c-.5292-.3438-.9408-.668-1.3035-1.0868l-.1134.0982zm.1133-.0982-.0863-.0996-.0416.125.0712.0238.0567-.0491zm1.2216 1.2125c.4007.2618 2.3684 1.5318 2.7871 1.8148l.084-.1243c-.422-.2854-2.3888-1.5544-2.789-1.816l-.082.1255zm.0821-.1255-.0001-.0002-.041.063.041-.0629zm2.677 1.8516c-.0992.2637-.2339.876-.2547 1.158l.1496.0106c.0173-.2553.154-.8773.2453-1.1154l-.1402-.0532zm.1402.0532.0211-.0555-.0492-.0332-.042.062zm-.2937 1.0399c-.7028-.264-1.789-.6785-2.1755-.8829l-.07.1326c.4057.2137 1.4873.6254 2.1927.8906l.0528-.1403zm-.0528.1403.0941.0354.007-.1003-.0748-.005-.0264.0702zm-2.1225-1.023c-.6244-.3291-1.2086-.5286-1.4883-.9915l-.128.0784c.326.5253.9389.7204 1.546 1.0455l.0704-.1325zm-.0704.1324h.0002l.035-.0662-.0352.0662zm-1.556-1.073.002.0147.008.0127.064-.0392-.074.0118z" fill="#020202"/>
    </g>
    <path d="M22.2102 65.1824c-1.4867 1.2788-4.0226 3.1432-5.1406 4.6122 1.4384-.4066 2.8813-.831 4.5391-.992.7682-.079 3.4242-.3278 5.0953-.5182.7054-1.6563 2.3765-3.5 3.0437-4.2288-.941-.0615-5.862.3044-7.5377 1.1268" fill="#2b9edc"/>
    <path d="M22.3573 65.3517c-1.4961 1.2845-4.0293 3.1543-5.1083 4.5778l-.3578-.272c1.157-1.5146 3.6955-3.3735 5.173-4.6465l.293.3408zm-5.3485 4.2255c1.4368-.4058 2.895-.836 4.5789-.9994l.0434.4474c-1.6318.1586-3.0597.5771-4.4996.9846l-.1223-.4326zm.1223.4326-.6476.1825.4075-.535.179.1361.061.2164zm4.455-1.4319c.7705-.0794 3.4254-.3278 5.093-.5179l.0509.4467c-1.6748.1909-4.3315.4394-5.0977.5184l-.0462-.4472zm.0462.4472h-.0008l-.0006.0001-.021-.2235.024.2235zm4.8654-.8298c.7322-1.7117 2.4141-3.5573 3.0847-4.2925l.3316.3036c-.6639.7226-2.3246 2.564-3.0027 4.1651l-.4136-.1762zm.4136.1762-.0512.1205-.1301.015-.024-.2233.2068.0882zm2.8224-4.0926c-.8834-.0653-5.848.3154-7.424 1.1044l-.198-.4035c1.775-.8556 6.653-1.207 7.6512-1.1494l-.03.4485zm.03-.4485.4677.0306-.3166.3455-.1657-.152.015-.2241zm-7.6988 1.1807.021-.018.027-.012.0991.2018-.1465-.1702z" fill="#020202"/>
    <path d="M76.5704 38.2247c-.3174.6321-1.0067 1.4691-1.3184 1.8847-.5574-.3863-2.0604-1.235-2.8461-1.5891.1945-.4419.2194-1.4691.4025-2.0955 1.3446.48 2.827 1.2263 3.762 1.8" fill="#2b9edc"/>
    <path d="M76.7705 38.3256c-.3382.67-1.0326 1.508-1.3394 1.9186l-.3596-.2697c.3166-.4205 1.0008-1.2563 1.2973-1.8507l.4017.2016zm-1.6472 1.9685c-.5355-.3725-2.0457-1.2249-2.8104-1.569l.1846-.4097c.807.3646 2.3022 1.2088 2.8817 1.6092l-.256.3695zm.3078-.0497-.13.1729-.178-.1232.1279-.1846.1798.1349zm-3.2316-1.8147c.1678-.357.2017-1.3988.3924-2.068l.4316.1261c-.176.5838-.1912 1.5962-.4126 2.123l-.4114-.181zm.1133.2955-.203-.0914.0897-.2037.2056.0905-.0923.205zm.5704-2.512c1.3647.4876 2.8531 1.2373 3.8039 1.82l-.235.3833c-.9196-.5645-2.395-1.3076-3.7199-1.78l.151-.4234zm-.2913.1486.0668-.2287.2245.08-.0755.2119-.2158-.0632zm4.0951 1.6715.1763.1078-.093.1847-.2007-.101.1174-.1915z"/>
    <path d="M93.9248 59.6616c-.9701-.7345-3.1812-2.3238-4.1105-2.9707 1.3552-.1756 3.4023-.2193 5.0631.2428.9818.6088 2.4174 1.5572 3.607 2.2974-1.437.0731-3.4282.1816-4.5596.4303" fill="#2b9edc"/>
    <path d="M93.788 59.8411c-.9648-.7305-3.1776-2.3212-4.1032-2.9653l.2568-.369c.933.6493 3.1427 2.2375 4.118 2.976l-.2716.3583zm-4.0038-3.3727c1.3788-.1774 3.4428-.2247 5.1524.249l-.1204.4332c-1.6117-.4509-3.6426-.41-4.974-.2364l-.0579-.4458zm-.0996.4074-.4777-.3325.5772-.0749.03.223-.1283.1846zm5.3102-.1328c.9862.612 2.4214 1.5596 3.6073 2.2976l-.2373.3818c-1.1936-.7427-2.6294-1.6916-3.6067-2.2973l.2368-.3821zm-.0582-.027.0308.0091.027.018-.1183.1912.0602-.2167zm3.5581 2.7386c-1.4338.0722-3.426.183-4.5229.4254l-.0964-.439c1.166-.2548 3.1562-.3615 4.5966-.4353l.024.4489zm.1073-.4153.6099.3784-.7172.0369-.012-.2245.1187-.1909zm-4.6302.8407-.1012.021-.0828-.0627.1358-.1792.0482.2197z" fill="#060606"/>
    <path d="M88.9307 56.0939c-.2604-.1756-.8284-.5679-1.1502-.7874-.9863-.673-2.2009-1.5189-2.745-1.911 1.1399-.1874 2.9456-.2431 4.3988.0497.9116.6352 2.11 1.6478 3.1696 2.3209-1.2249.1052-2.7731.1025-3.673.3277" fill="#2b9edc"/>
    <path d="M88.811 56.2803c-.2625-.1771-.8302-.569-1.1513-.788l.2533-.3714c.3225.22.891.6126 1.1492.7866l-.2514.3728zm-1.1513-.788c-.9877-.6744-2.2022-1.52-2.7498-1.9144l.2625-.3648c.541.3898 1.7558 1.2356 2.7404 1.9077l-.2532.3713zm.2533-.3714-.1268.1858zm-2.9082-1.9472c1.1689-.1909 2.9865-.2481 4.4796.0513l-.0888.4406c-1.4133-.2859-3.2071-.232-4.318-.0483l-.073-.4435zm-.0947.4042-.4391-.316.534-.0881.0365.2218-.1313.1825zm4.6587-.3171c.9248.6451 2.1209 1.655 3.1614 2.3156l-.241.3793c-1.078-.6856-2.2792-1.7012-3.1773-2.3262l.2571-.3687zm-.0842-.036.0458.009.0384.027-.1287.1844.0443-.2203zm3.1442 2.7652c-1.2364.105-2.7886.1064-3.6374.3219l-.1092-.4361c.9508-.2356 2.4954-.228 3.7083-.3338l.0383.448zm.1013-.4136.5616.3566-.663.057-.018-.2239.1205-.1897zm-3.739.7355-.097.024-.083-.0561.1255-.1864.0546.2182z"/>
    <path d="M77.7454 42.4098c-.3512-.4243-1.4148-1.475-2.0062-1.9404.4376-.3746.938-1.2701 1.4326-1.7999.9482.6879 2.0193 1.5746 2.5593 2.201-.5386.4945-1.563 1.1735-1.9859 1.5393" fill="#2b9edc"/>
    <path d="M77.571 42.5517c-.3319-.4026-1.4023-1.4603-1.972-1.907l.278-.3532c.6129.4841 1.6696 1.5274 2.0403 1.9737l-.3463.2865zm-1.9792-2.2545c.3857-.3215.8958-1.2216 1.4144-1.7825l.3286.3068c-.4704.4984-.9613 1.3892-1.4507 1.8172l-.2922-.3415zm.006.3474-.2152-.1694.208-.178.1462.1709-.139.1765zm1.7035-2.1584c.9582.6958 2.0325 1.5828 2.5976 2.236l-.3404.2937c-.5154-.5993-1.5827-1.486-2.5212-2.1657l.264-.3639zm-.2964.03.1355-.1454.1609.1166-.1319.1819-.1642-.1535zm2.8755 2.5197c-.561.5138-1.5898 1.1953-1.9908 1.5438l-.294-.34c.445-.3832 1.4648-1.0595 1.981-1.5349l.304.3311zm.018-.3123.1424.1651-.1607.1472-.152-.1655.1703-.1468zm-2.009 1.8562-.1734.1501-.1466-.1771.1732-.1433.1472.17z"/>
    <path d="M84.2223 52.7759c-.6851-.562-2.0254-2.1774-2.4952-2.9296.8943-.0965 1.8613-.4945 3.1095-.1903.4054.4245 1.3405 1.3288 1.8482 1.7355l1.0243 1.0039c-1.1777.1315-2.65.1492-3.4868.3804" fill="#2b9edc"/>
    <path d="M84.0786 52.9486c-.7223-.5971-2.0506-2.201-2.5432-2.9843l.3812-.2382c.4471.7211 1.7994 2.348 2.4473 2.875l-.2853.3476zm-2.3768-3.3268c.8451-.0851 1.864-.506 3.187-.1852l-.1064.4367c-1.1739-.2877-2.0885.087-3.0322.1954l-.0483-.4468zm-.1663.3425-.1903-.304.3566-.0386.024.2233-.1907.119zm3.4626-.4646c.397.4162 1.3358 1.323 1.8263 1.7154l-.2811.3508c-.5249-.4211-1.456-1.323-1.87-1.7556l.325-.3105zm-.1093-.0633.0638.015.0455.0474-.1624.1553.0533-.2185zM86.841 51.23l1.0243 1.0039-.3146.321-1.0244-1.004zm-.018-.0151.009.006.0091.009-.1573.1607.1405-.1753zm.9087 1.4027c-1.191.1315-2.6682.154-3.4519.3738l-.1196-.4333c.8904-.2425 2.3572-.2557 3.5217-.3872l.0501.4467zm.1324-.3839.3385.3313-.4709.0524-.024-.2232.1574-.1607zm-3.5843.7577-.1124.0308-.0902-.0737.1427-.1738.06.2167z" fill="#080808"/>
    <path d="M79.6677 45.6457c-.174-.4099-.4725-1.0742-.6628-1.396l-.0483-.0822c-.1843-.3131-.5807-.9277-.8456-1.2907.5355-.2574 1.3563-.9394 2.0325-1.3579.2722.3804.7157.9102.872 1.1706.2986.5034.568 1.1502.8782 1.8906-.6716.3248-1.7675.7784-2.2258 1.0654" fill="#2b9edc"/>
    <path d="M79.4608 45.7346c-.1711-.4042-.472-1.07-.6495-1.3695l.387-.2286c.2028.3445.4995 1.007.6762 1.4225l-.4137.176zm-.6496-1.3698-.0483-.0818.3872-.2283.0483.0818zm.0001.0003-.0001-.0002.1936-.1142-.1933.1145zm-.0485-.0824c-.1786-.304-.5763-.9196-.8335-1.2722l.363-.2649c.2722.3734.6679.9868.8579 1.3093l-.3874.228zm0 .0002v-.0002l.1936-.1139-.1936.1142zm-.7493-1.6075c.4897-.232 1.3184-.9156 2.0116-1.3464l.2365.3823c-.659.406-1.472 1.0861-2.0534 1.3693l-.1948-.4052zm-.0843.3351-.159-.2181.2433-.117.0974.2027-.1817.1324zm2.3969-1.6212c.2652.372.7048.8941.8819 1.1857l-.3854.2313c-.1358-.229-.5834-.7667-.8622-1.1554l.3657-.2617zm-.3011-.0602.179-.1106.1222.1708-.1828.1307-.1184-.1912zm1.1836 1.2471c.3108.5249.5817 1.1779.8921 1.9185l-.4147.1735c-.3098-.7408-.578-1.3806-.864-1.8629l.3866-.2292zm-.0006-.001.0004.0004.0002.0006-.1933.1145.1927-.1157zm.7833 2.2086c-.6788.3279-1.7806.786-2.2045 1.0536l-.2385-.381c.493-.3064 1.5827-.7552 2.2472-1.0772l.1957.4046zm.1093-.2892.0822.1963-.1915.0926-.098-.2023.2073-.087zm-2.3138 1.3427-.2233.1396-.103-.2424.2067-.0878.1193.1906z"/>
    <path d="M81.3387 49.1843c-.4007-.7318-1.1616-2.359-1.4296-2.9825.5431-.1462 1.5132-.5998 2.264-.8896.4462 1.001 1.1381 2.3062 1.9665 3.4299-1.0214.0467-2.1174.3131-2.8008.442" fill="#2b9edc"/>
    <path d="M81.142 49.292c-.4079-.746-1.1668-2.369-1.4389-3.0014l.413-.1777c.2638.6147 1.027 2.2453 1.4203 2.9633l-.3944.2157zm-1.2908-3.3072c.5062-.1349 1.4821-.5886 2.2413-.8823l.1618.4194c-.7423.2857-1.706.739-2.2863.897l-.1169-.434zm-.148.3058-.1026-.2382.2506-.0677.0584.217-.2065.0887zm2.6757-1.0699c.4404.9884 1.1274 2.2832 1.9422 3.3881l-.3618.2667c-.842-1.1425-1.5388-2.4585-1.991-3.4717l.4107-.1831zm-.2862-.118.1993-.0768.0869.195-.2053.0918-.081-.2098zm2.0578 3.8642c-.9917.045-2.077.3073-2.7696.4383l-.0833-.4417c.6745-.1265 1.7814-.3969 2.832-.4457l.021.449zm.1705-.358.25.3388-.4204.018-.0091-.2245.181-.1334zm-2.9401.7963-.1604.0303-.0782-.1433.1972-.1079.0417.221z" fill="#050505"/>
    <path d="M100.9028 63.3524c-.4274.047-1.7792.003-2.5724.0791-.8047-.7812-2.7422-2.4584-3.6963-3.2106.1786-.024 3.8733-.3599 5.6089.199 1.1004.4244 3.1095 1.5452 4.1632 2.2212l1.0345.7171c-1.232-.0323-3.1856-.1522-4.5378-.006" fill="#2b9edc"/>
    <path d="M100.937 63.5764c-.4645.0492-1.804.006-2.5757.0795l-.043-.4474c.8152-.0776 2.1792-.0339 2.5695-.0788l.049.4468zm-2.7537.018c-.7937-.7708-2.7343-2.4508-3.679-3.1952l.2784-.353c.9635.76 2.8979 2.434 3.7137 3.2258l-.3132.3225zm.178.0624-.1036.009-.0744-.0725.1566-.1612.021.2235zm-3.747-3.6572c.2075-.024 3.8792-.3701 5.707.208l-.1378.4278c-1.6434-.5395-5.3612-.2145-5.5108-.19l-.0585-.4457zm-.1099.3994-.4181-.3302.5282-.0693.0299.223-.139.1765zm5.8289-.1873c1.131.4374 3.1358 1.5574 4.2039 2.2417l-.2427.3784c-1.0395-.6678-3.0531-1.7895-4.1229-2.2008l.1616-.4194zm-.012-.003.0068.0018.0052.0022-.081.2098.069-.214zm4.2226 2.2503 1.0344.7172-.256.3695-1.0344-.7172.2563-.3695zm-.0069-.006.0069.0045-.128.1846.1215-.1891zm.9073 1.1311c-1.237-.033-3.1875-.1507-4.5078-.006l-.0483-.4469c1.384-.1489 3.3411-.027 4.568.006l-.012.4494zm.134-.4094.6192.4286-.7531-.018.0068-.2247.128-.1846zm-4.6906-.0447h.0005l.024.2236-.024-.2236z"/>
    <path d="M101.9119 78.2166c1.03.6965 6.0288 4.0943 7.2654 5.236 1.5187 1.3988 2.5476 2.461 2.8871 4.2141 0 1.8791-.7259 4.9257-2.3181 6.8718-1.159-5.3267-8.1816-11.37-10.1452-13.0325l.0717-.0788c.9103-.9511 1.832-2.3937 2.239-3.2106" fill="#2b9edc"/>
    <path d="M102.0316 78.0302c1.0353.701 6.0223 4.0878 7.2919 5.257l-.305.3303c-1.2036-1.1142-6.2137-4.5227-7.2388-5.2149l.2517-.3724zm7.2917 5.2568c1.5175 1.3975 2.6026 2.5076 2.9556 4.3368l-.4414.0854c-.3264-1.6769-1.2987-2.6912-2.8187-4.0916l.3045-.3307zm-.3045.3307-.0001-.0001-.0001-.0001.1525-.1651-.1522.1654zm3.2643 4.0488c-.0035 1.932-.73 5.0017-2.369 7.014l-.3472-.2847c1.5459-1.8801 2.2713-4.9033 2.2672-6.7295h.4496zm-.0035-.0429.0035.021v.021h-.2248l.2206-.0429zm-2.7583 6.9623c-1.1126-5.1986-8.1132-11.262-10.0708-12.9087l.2904-.3431c1.9696 1.678 9.014 7.7018 10.2194 13.1563l-.4392.0956zm.3935.0947-.2943.3604-.0992-.455.2197-.0476.1738.1423zm-10.4853-13.326.0716-.0788.3327.3022-.0716.0788-.3328-.3022zm.021.3227-.1774-.1505.1565-.1723.1664.151-.1454.1718zm.0545-.4058c.8864-.924 1.8063-2.362 2.2002-3.1554l.4024.2005c-.4196.8402-1.3436 2.287-2.2778 3.2657l-.3249-.3108zm-.0034.003.0017-.0022.0017-.002.1625.1555-.1664-.151zm2.204-3.1596.1145-.2295.2128.1438-.1259.1861-.201-.1004z"/>
    <path d="M72.0415 36.1484c.044.7638-.1052 1.633-.1888 2.043-.8004-.3162-3.97-1.0947-3.97-1.0947V35.329c1.5644.237 2.9385.4536 4.1588.8193" fill="#2b9edc"/>
    <path d="M72.2656 36.1364c.0452.801-.108 1.6805-.193 2.1007l-.4405-.0899c.0818-.3995.2275-1.2584.1846-1.985l.4489-.027zm-.4958 2.265c-.3741-.1487-1.3715-.4251-2.2597-.6576a138.7792 138.7792 0 0 0-1.175-.3017l-.3692-.0923-.1014-.024-.027-.006-.006-.0016.1047-.4372c.006.0019 3.1608.7751 3.999 1.1039l-.1651.4181zm.3028-.1643-.0537.2625-.2493-.0982.0827-.2092.2203.045zm-4.415-1.1395V35.33h.4496v1.7676zm.1711.2182-.1711-.042v-.1762h.2248l-.0537.2182zm.0872-2.2082c1.565.2373 2.9479.4545 4.1897.8263l-.1291.4306c-1.1988-.3596-2.5643-.5756-4.1278-.8124l.0674-.4445zm-.2583.2224v-.2614l.2583.039-.0335.2224h-.2248zm4.4482.604.1507.0453.009.157-.2244.012.0644-.2152z" fill="#030303"/>
    <g clip-path="url(#d)" transform="matrix(2.9969 0 0 -2.9969 -793.65 1373.5)">
      <path d="M300.52 434.98c.7763-.1885 1.3178-.2207 1.8208-.7256.2724-.539.8545-1.3505.9507-1.9423-.4449.2744-.9112.4755-1.4678.671-.3623.1258-1.9419.6561-2.623.905-.009.3048-.142 1.0138-.248 1.3204.6117-.0791 1.265-.1543 1.5673-.2285" fill="#2b9edc"/>
      <path d="M300.54 435.06c.7661-.1873 1.3314-.2193 1.8562-.7455l-.1063-.106c-.4811.4836-.9989.5162-1.7854.7057zm1.87-.7646c.2672-.5324.8536-1.3418.9578-1.9641l-.148-.024c-.0881.5612-.6661 1.3748-.9436 1.9205l.1338.0677zm-.0138.019.008-.008.005-.0105-.0669-.0338.0531.0529zm.8582-2.059c-.4388.2706-.8994.4695-1.4533.664l.0497.1415c.5593-.1963 1.0313-.3997 1.4823-.6778l-.0787-.1277zm.1134.0759.0263-.162-.1397.086.0394.0639.074.012zm-1.5665.588c-.3614.1255-1.9412.656-2.6242.9056l.0515.1409c.6793-.2483 2.259-.7786 2.622-.9048l-.0493-.1417zm.0493.1417h.0002l-.0249-.0709.0246.0708zm-2.7227.832c-.008.2907-.1415 1.0043-.244 1.298l.1419.049c.1095-.3194.2416-1.0237.252-1.3424l-.1499-.005zm.0492-.0681-.0477.0174-.001.0507.075.002-.0258-.0704zm-.2126 1.465c.6119-.0792 1.2634-.1536 1.5757-.23l-.0358-.1456c-.2923.0722-.9475.148-1.5591.227l.0192.1487zm-.0805-.0988-.0396.1144.12-.0155-.01-.0744-.0709-.0245zm1.6206-.2769h-.0001l.0178.0729-.0177-.073z"/>
      <path d="M302.89 431.7c.0816-.5078.3614-1.5323.1573-2.1475-.3692.4258-.7876.7549-1.3199 1.1006-.3999.2617-2.3676 1.5312-2.7876 1.8154.0948.251.23.8682.25 1.1367.7032-.2646 1.7876-.6777 2.1836-.8867.6158-.3271 1.215-.5244 1.5166-1.0185" fill="#2b9edc"/>
      <path d="M302.96 431.71c.0786-.503.3668-1.5286.1545-2.183l-.1424.0472c.1959.576-.0755 1.5992-.1602 2.112l.1481.0238zm.0266-2.2085c-.3633.4189-.7747.743-1.3041 1.0868l.0817.1258c.5352-.3476.9606-.6816 1.3357-1.1143l-.1133-.0983zm.1279.0255-.0415-.125-.0864.0995.0567.0491.0712-.0236zm-1.4322 1.0615c-.3996.2616-2.3668 1.5306-2.7886 1.8161l.084.1242c.4182-.283 2.3864-1.5529 2.7866-1.8148l-.0822-.1255zm.0002-.0001h-.0001l-.0001.0001.041.0627-.0408-.0629zm-2.817 1.9048c.0909.2382.2272.8602.2454 1.1158l.1496-.0111c-.0218-.2815-.1558-.894-.2546-1.1576l-.1403.053zm.0282-.0886-.0491.0332.0209.0554.0702-.0265zm.3184 1.269c.7045-.2653 1.7865-.677 2.1922-.8906l-.07-.1327c-.3863.2044-1.473.6189-2.175.8829l.0528.1404zm-.1012-.0646.007.1.0938-.0353-.0264-.0702-.0748.006zm2.2936-.8261c.607-.3252 1.2206-.5202 1.5454-1.0456l-.128-.0782c-.2786.4628-.8633.6623-1.4878.9914l.0704.1324zm-.0002 0h.0002l-.0352-.0662.035.0663zm1.5456-1.0456.008-.0126.002-.0145-.074-.012.064.0392z" fill="#0a0a0a"/>
    </g>
    <path d="M106.427 65.1824c1.4884 1.2788 4.0227 3.1432 5.1394 4.6122-1.437-.4066-2.8802-.831-4.5364-.992-.7712-.079-3.4242-.3278-5.0969-.5182l-.43-.9218c-.4948-.9395-1.9462-2.578-2.612-3.307.938-.0614 5.8591.3045 7.536 1.1269" fill="#2b9edc"/>
    <path d="M106.564 65.0114c1.479 1.273 4.016 3.132 5.1717 4.6465l-.3578.2721c-1.0775-1.4237-3.6094-3.2933-5.107-4.5776l.2932-.341zm4.9316 4.9988c-1.4387-.4074-2.8665-.826-4.497-.9845l.0435-.4474c1.6821.1633 3.1406.5935 4.5758.9993zm.24-.3523.4068.5352-.6468-.1828.061-.2163.179-.136zm-4.7382-.6323c-.769-.0791-3.423-.3277-5.0992-.5185l.051-.4466c1.6686.19 4.321.4385 5.0942.5179l-.0458.4472zm.0012.0001h-.0012l.024-.2237-.021.2236zm-5.2787-.6469-.43-.9218.4074-.19.43.9218-.4074.19zm.1784.1283-.1252-.015-.053-.1142.2037-.095-.0239.2232zm-.6035-1.0404c-.4657-.891-1.9184-2.5395-2.579-3.2602l.3317-.3033c.6711.7366 2.1211 2.3662 2.645 3.354l-.3976.2094zm.3977-.2095.0034.006.0017.006-.2038.095.1987-.1046zm-2.8256-3.4266c.9955-.0575 5.8733.2937 7.6495 1.1494l-.1978.4035c-1.5772-.789-6.5417-1.1699-7.4222-1.1044l-.03-.4485zm-.1514.3759-.3154-.345.4666-.031.0154.2242-.166.1517zm7.8007.7735.027.012.021.018-.1465.1704.0989-.2017z"/>
    <path d="M78.9528 72.287c0 6.497-6.5528 11.762-14.6333 11.762-8.0817 0-14.6316-5.2653-14.6316-11.762 0-6.4911 6.55-11.7564 14.6316-11.7564 8.0805 0 14.6333 5.2653 14.6333 11.7564" fill="#2b9edc"/>
    <path d="M79.1769 72.287c-.012 6.6642-6.688 11.9861-14.858 11.987v-.4496c3.9913.0004 7.6014-1.3012 10.206-3.3951 2.6056-2.0951 4.2023-4.972 4.2025-8.1423h.4496zm-14.858 11.987c-8.1715-.0008-14.8457-5.3232-14.8564-11.987h.4496c.0001 3.17 1.5964 6.0471 4.2013 8.1422 2.604 2.0938 6.2135 3.3953 10.2055 3.3951v.4496zm0-.4496v.2248zM49.4624 72.287c.012-6.6583 6.6849-11.9806 14.8563-11.9811v.4496c-3.9922-.0005-7.6012 1.3015-10.2055 3.3944-2.6048 2.0946-4.2012 4.9698-4.2012 8.1373h-.4496zm.4496 0h-.2248zm14.4068-11.981c8.1702.0006 14.8473 5.3228 14.858 11.9811h-.4496c-.0002-3.1674-1.597-6.0424-4.2025-8.1372-2.605-2.093-6.2144-3.395-10.206-3.3945v-.4495zm0 .4496v-.2248zm14.4086 11.5317h.2247z"/>
    <path d="m60.7552 41.9086-.009-4.261c-5.6454 1.1091-8.998 4.0358-10.4363 6.6551-.341.6146-.6497 1.355-.9775 2.1336-.7889 1.8759-1.772 4.2084-3.7081 6.096-.505.4889-2.0167 1.6946-4.042 3.073-5.1507 3.5119-12.3357 9.1194-13.7828 12.4619-2.1905 5.0572-1.0492 9.652 1.8658 12.798 5.1772-4.0887 13.1055-7.7937 14.1972-8.745 1.538-1.3373 4.4177-6.4647 10.6059-12.1279 2.119-1.8553 3.8648-3.4621 4.7647-4.466.442-.4946.6-.7843.6-.7843.2092-.3981.1244-2.4584-.1918-2.9004 0 0-1.4268-1.9959-1.4268-3.8398 0-2.0983 1.9054-4.346 1.9054-4.346.3527-.4126.6365-1.1969.6365-1.7472" fill="#2b9edc"/>
    <path d="m60.5295 41.9086-.009-4.261.4495-.001.0091 4.261-.4496.001zm.258-4.041c-5.588 1.0976-8.8805 3.9887-10.2826 6.5427l-.394-.2164c1.4745-2.6848 4.8868-5.647 10.5898-6.7675l.0866.4413zm-.0866-.4413.2673-.0524.0008.2727-.2248.0006-.0435-.2206zm-10.1963 6.985c-.332.598-.6395 1.3329-.967 2.1116l-.4143-.1744c.3278-.7782.6384-1.524.9882-2.1553l.3931.2179zm.0005-.0009-.0002.0005-.0003.0003-.1966-.109.1969.1081zm-.9675 2.1124c-.7897 1.8758-1.783 4.2429-3.7582 6.1699l-.3139-.322c1.8968-1.8483 2.8698-4.1464 3.6579-6.0222l.4142.1744zm-.4143-.1744v-.0001l.2071.0872-.207-.0872zm-3.3446 6.3447c-.5256.5076-2.0375 1.7123-4.0717 3.0973l-.253-.3716c2.0166-1.3718 3.528-2.5788 4.0122-3.0486l.3126.323zm.0006-.0006-.0004.0003-.0002.0003-.1562-.1616.157.161zm-4.0722 3.0977c-5.1357 3.4925-12.3255 9.135-13.7033 12.3655l-.4125-.1786c1.5164-3.4545 8.6964-9.0266 13.8625-12.5584l.2532.3715zm-.2533-.3715h.0001l.1265.1858-.1265-.1859zm-13.4501 12.737c-2.154 4.9853-1.0329 9.4648 1.8244 12.556l-.3298.3055c-2.9728-3.2009-4.1343-7.9112-1.9072-13.0402l.4125.1786zm-.4125-.1786.2062.0894-.2062-.0893zm1.9326 12.711c5.1988-4.1045 13.1697-7.8363 14.189-8.738l.2952.339c-1.1644 1.001-9.05 4.679-14.2055 8.7517l-.2788-.3528zm.2788.3528-.163.1285-.1412-.1522.1648-.1528.1394.1765zm13.9103-9.091c1.4772-1.2705 4.3974-6.4464 10.6018-12.1241l.3035.3316c-6.1725 5.6488-9.0112 10.7274-10.6102 12.1317l-.2952-.3391zm0 .0001.1475.1696-.1478-.1697zm10.6054-12.1275c2.1161-1.8526 3.8601-3.4593 4.7454-4.4472l.3347.3002c-.915 1.0201-2.6619 2.6267-4.784 4.4851l-.2961-.3382zm-.0031.003.0037-.0032.148.169-.1516-.1657zm4.7488-4.4502.4496-.5574.0953-.1426.021-.0333.006-.009.3943.216c-.0091.015-.1763.3191-.6298.8265l-.3351-.2997zm.3351.2997-.0002.0001v.0002l-.1675-.1502.1675.1499zm.2335-1.0386-.1756-2.665.3656-.2616c.3785.6215.4532 2.5586.208 3.1357l-.398-.2092zm.398.2092-.0008.0015-.0009.0015-.1975-.1076.199.1046zm-.5736-2.8741c-.006-.018-1.4581-2.0175-1.4688-3.9705h.4496c-.0017.864.341 1.8006.6905 2.5124.1744.3562.349.6574.4796.8682l.1573.2443.0432.0635.009.015-.3616.267zm0 0 .1828-.1307-.1828.1307zm-1.4688-3.9704c.015-2.2265 1.9514-4.4716 1.9588-4.4914l.343.2907-.018.024-.0585.0725-.2107.2766c-.175.2382-.4083.5785-.6415.9817-.4675.8057-.925 1.8664-.9225 2.8474h-.4497zm.4496 0h-.2248zm1.5098-4.4921c.3087-.3506.5893-1.1236.5824-1.6012h.4496c-.006.6228-.294 1.4187-.6903 1.8933l-.3417-.2922zm-.0007.0007.0004-.0003.0003-.0004.1708.146-.1714-.1454zm1.0327-1.6024v.0005h-.2247z"/>
    <path d="m67.8855 41.9086.009-4.261c5.6487 1.1091 8.9983 4.0358 10.4378 6.6551.3396.6146.6497 1.355.9761 2.1336.7919 1.8759 1.772 4.2084 3.711 6.096.5034.4889 2.0136 1.6946 4.0386 3.073 5.1509 3.5119 12.336 9.1194 13.7831 12.4619 2.1904 5.0572 1.0492 9.652-1.8642 12.798-5.1773-4.0887-13.1069-7.7937-14.1986-8.745-1.538-1.3373-4.4161-6.4647-10.6062-12.1279-2.1172-1.8553-3.8614-3.4621-4.7644-4.466-.442-.4946-.6-.7843-.6-.7843-.2092-.3981-.1244-2.4584.1918-2.9004 0 0 1.4265-1.9959 1.4265-3.8398 0-2.0983-1.905-4.346-1.905-4.346-.3498-.4126-.6351-1.1969-.6351-1.7472" fill="#2b9edc"/>
    <path d="m67.6597 41.9086.009-4.261.4497.0009-.009 4.261-.4497-.0009zm.277-4.4811c5.7062 1.1204 9.1155 4.0828 10.5915 6.7675l-.394.2167c-1.4035-2.5542-4.693-5.4453-10.2842-6.543l.0866-.4412zm-.2683.2203.0008-.2728.2673.0525-.0435.2206-.2247-.0005zm10.8594 6.5468c.3482.6307.6602 1.3769.9866 2.1553l-.4144.1739c-.3263-.7785-.6349-1.5131-.9657-2.1118l.3935-.2175zm-.3935.2176v-.0002l-.0002-.0003.1969-.1082-.197.1088zm1.38 1.9372c.7912 1.8764 1.7612 4.174 3.6607 6.0225l-.3136.3222c-1.9786-1.9267-2.9687-4.2946-3.7613-6.1698l.4142-.1747zm-.4142.1748-.0002-.0003v-.0003l.2071-.0869-.207.0875zm4.0746 5.8473c.4822.4695 1.9925 1.6768 4.0085 3.0484l-.253.3717c-2.034-1.3852-3.5442-2.5896-4.0686-3.0975l.3131-.3225zm-.313.3225h-.0002l-.0001-.0002.1567-.161-.1564.1613zm4.3217 2.726c5.1663 3.5318 12.3463 9.1038 13.8628 12.5584l-.4125.1786c-1.378-3.2305-8.5677-8.873-13.7034-12.3654l.2532-.3715zm-.0001 0v.0001l-.1264.1858.1265-.1858zm13.863 12.5584c2.227 5.1288 1.0656 9.8393-1.9056 13.0401l-.3298-.3054c2.8555-3.0912 3.9768-7.5705 1.8228-12.556l.4125-.1786zm-.4125.1786v-.0001l.2062-.0893-.2062.0893zm-1.7974 12.885c-5.1555-4.0727-13.0424-7.7507-14.207-8.7518l.2953-.339c1.0192.9016 8.9914 4.6336 14.1903 8.738l-.2787.3529zm.3042-.024-.141.1523-.163-.1286.1393-.1765.1649.1528zm-14.511-8.728c-1.5989-1.4044-4.4364-6.4829-10.6106-12.1316l.3035-.3316c6.2062 5.6776 9.1251 10.8537 10.6021 12.1241l-.2951.3391zm.2952-.339-.1477.1696.1475-.1696zm-10.902-11.7895c-2.1206-1.8586-3.8653-3.465-4.7834-4.4848l.3342-.3007c.8883.9884 2.6313 2.5949 4.7454 4.4475l-.2964.338zm.2964-.338.0017.0015.0019.0017-.1516.1657.148-.169zm-5.0801-4.1474c-.4535-.5073-.6214-.811-.6298-.8265l.3947-.2151.024.0413.0956.1433.4497.5574-.335.2997zm.0004.0006-.0002-.0003-.0002-.0003.1675-.1498-.1672.1504zm-.6318-.83c-.2451-.577-.1705-2.5144.208-3.1358l.3656.2617-.1756 2.665-.398.2091zm.0016.003-.0008-.0016-.0008-.0014.199-.1046-.1975.1076zm.2062-3.1386.015-.021.042-.0617.1574-.2445c.1306-.2107.3052-.5118.4794-.868.3493-.7122.6921-1.6487.6904-2.5127h.4496c-.012 1.953-1.4618 3.9519-1.4686 3.9705l-.3656-.2613zm.3657.2613v.0001l-.1829-.1306.1829.1306zM70.2 48.002c.0026-.981-.4551-2.0418-.9224-2.8475a10.909 10.909 0 0 0-.6416-.9818l-.2104-.2763-.0575-.0713-.015-.018.3389-.2952c.006.021 1.943 2.2648 1.9584 4.4914h-.4496zm.4496 0h-.2248zm-2.3014-4.2007c-.3929-.4739-.6816-1.2695-.6884-1.8924h.4496c-.006.4773.2748 1.2507.5818 1.6019l-.343.2907zm.343-.2907-.1715.1454zm-1.0314-1.6019v-.0004l.2248.0004z"/>
  </g>
</svg>

