<?xml version="1.0" encoding="UTF-8" standalone="no"?>
<svg
     viewBox="0 0 32 32"
     version="1.1"
     id="svg2"
     width="512"
     height="512"
     sodipodi:docname="homeassistant.svg"
     inkscape:version="1.3.2 (091e20ef0f, 2023-11-25, custom)"
     xmlns:inkscape="http://www.inkscape.org/namespaces/inkscape"
     xmlns:sodipodi="http://sodipodi.sourceforge.net/DTD/sodipodi-0.dtd"
     xmlns="http://www.w3.org/2000/svg"
     xmlns:svg="http://www.w3.org/2000/svg"
     xmlns:rdf="http://www.w3.org/1999/02/22-rdf-syntax-ns#"
     xmlns:cc="http://creativecommons.org/ns#"
     xmlns:dc="http://purl.org/dc/elements/1.1/">
    <sodipodi:namedview
         id="namedview1"
         pagecolor="#ffffff"
         bordercolor="#000000"
         borderopacity="0.25"
         inkscape:showpageshadow="2"
         inkscape:pageopacity="0.0"
         inkscape:pagecheckerboard="0"
         inkscape:deskcolor="#d1d1d1"
         inkscape:zoom="1.63"
         inkscape:cx="223.31288"
         inkscape:cy="354.60123"
         inkscape:window-width="1898"
         inkscape:window-height="1008"
         inkscape:window-x="0"
         inkscape:window-y="0"
         inkscape:window-maximized="1"
         inkscape:current-layer="svg2" />
    <defs
         id="defs2" />
    <title
         id="title1">file_type_homeassistant</title>
    <path
         d="M 5.114,27.944 V 18.427 H 2.66 A 0.668,0.668 0 0 1 2.19,17.293 L 15.41,3.748 v 0 A 0.819,0.819 0 0 1 16.576,3.74 l 0.007,0.007 6.9,7.037 v -1.3 0 a 0.553,0.553 0 0 1 0.55,-0.556 h 2.292 a 0.553,0.553 0 0 1 0.549,0.556 v 4.78 l 2.938,3.036 v 0 a 0.671,0.671 0 0 1 -0.01,0.942 0.657,0.657 0 0 1 -0.462,0.19 h -2.464 v 9.517 a 0.553,0.553 0 0 1 -0.549,0.556 H 5.664 a 0.553,0.553 0 0 1 -0.55,-0.561 z"
         style="fill:#000000;fill-rule:evenodd;fill-opacity:1;opacity:0.20138346"
         id="path1" />
    <path
         d="m 5.1134429,27.443813 v -9.517 h -2.454 a 0.668,0.668 0 0 1 -0.47,-1.134 L 15.409443,3.2478127 v 0 a 0.819,0.819 0 0 1 1.166,-0.008 l 0.007,0.007 6.9,7.0370003 v -1.3000003 0 a 0.553,0.553 0 0 1 0.55,-0.556 h 2.292 a 0.553,0.553 0 0 1 0.549,0.556 v 4.7800003 l 2.938,3.036 v 0 a 0.671,0.671 0 0 1 -0.01,0.942 0.657,0.657 0 0 1 -0.462,0.19 h -2.464 v 9.517 a 0.553,0.553 0 0 1 -0.549,0.556 H 5.6634429 a 0.553,0.553 0 0 1 -0.55,-0.561 z"
         style="fill:#3dbcf3;fill-rule:evenodd"
         id="path1-5" />
    <path
         d="m 21.717443,14.569813 a 2.841,2.841 0 0 0 -2.826,2.857 2.876,2.876 0 0 0 0.224,1.116 l -2.061,2.083 v -6.335 a 2.826,2.826 0 1 0 -2.12,0 v 6.335 l -2.061,-2.083 a 2.876,2.876 0 0 0 0.224,-1.116 2.826,2.826 0 1 0 -2.826,2.858 2.791,2.791 0 0 0 1.1,-0.227 l 3.559,3.6 v 4.342 h 2.12 v -4.343 l 3.56,-3.6 a 2.782,2.782 0 0 0 1.1,0.227 2.858,2.858 0 0 0 0,-5.715 z m -11.446,4 a 1.143,1.143 0 1 1 1.13,-1.143 1.136,1.136 0 0 1 -1.13,1.143 z m 5.728,-5.786 a 1.143,1.143 0 1 1 1.131,-1.143 1.136,1.136 0 0 1 -1.131,1.143 z m 5.723,5.786 a 1.143,1.143 0 1 1 1.131,-1.143 1.136,1.136 0 0 1 -1.136,1.143 z"
         style="fill:#ffffff"
         id="path2-3" />
    <metadata
         id="metadata1">
        <rdf:RDF>
            <cc:Work
                 rdf:about="">
                <dc:title>file_type_homeassistant</dc:title>
            </cc:Work>
        </rdf:RDF>
    </metadata>
</svg>
