<?xml version="1.0" encoding="UTF-8" standalone="no"?>
<svg
   width="96"
   height="96"
   version="1"
   id="svg9"
   sodipodi:docname="io.github.Foldex.AdwSteamGtk.svg"
   inkscape:version="1.3.2 (091e20ef0f, 2023-11-25, custom)"
   xmlns:inkscape="http://www.inkscape.org/namespaces/inkscape"
   xmlns:sodipodi="http://sodipodi.sourceforge.net/DTD/sodipodi-0.dtd"
   xmlns="http://www.w3.org/2000/svg"
   xmlns:svg="http://www.w3.org/2000/svg">
  <defs
     id="defs9" />
  <sodipodi:namedview
     id="namedview9"
     pagecolor="#ffffff"
     bordercolor="#000000"
     borderopacity="0.25"
     inkscape:showpageshadow="2"
     inkscape:pageopacity="0.0"
     inkscape:pagecheckerboard="0"
     inkscape:deskcolor="#d1d1d1"
     inkscape:zoom="8.9583333"
     inkscape:cx="47.944186"
     inkscape:cy="48"
     inkscape:window-width="1898"
     inkscape:window-height="1008"
     inkscape:window-x="0"
     inkscape:window-y="0"
     inkscape:window-maximized="1"
     inkscape:current-layer="svg9" />
  <g
     id="g9"
     transform="matrix(1.4641,0,0,1.4641,1.1488,0.41675)">
    <path
       style="opacity:0.2"
       d="M 4,14 V 55.222222 C 4,56.762222 5.24775,58 6.8,58 H 57.2014 C 58.7526,58 60,56.7625 60,55.222222 V 14 Z"
       id="path1" />
    <rect
       style="opacity:0.2"
       width="44.799999"
       height="5.5999999"
       x="9.6000004"
       y="42.099998"
       rx="2.1329999"
       ry="2.322"
       id="rect1" />
    <path
       style="fill:#c7c7c7"
       d="M 4,13 V 54.222222 C 4,55.762222 5.24775,57 6.8,57 H 57.2014 C 58.7526,57 60,55.7625 60,54.222222 V 13 Z"
       id="path2" />
    <path
       style="fill:#5a6367"
       d="m 6.8,7.0000002 c -1.55232,0 -2.8,1.2381944 -2.8,2.7770832 V 13 H 60 V 9.7770834 C 60,8.2381946 58.7526,7.0000002 57.2,7.0000002 Z"
       id="path3" />
    <rect
       style="opacity:0.2"
       width="44"
       height="6"
       x="10"
       y="42"
       rx="2.095"
       ry="2.4879999"
       id="rect3" />
    <rect
       style="fill:#ffffff"
       width="44"
       height="6"
       x="10"
       y="41"
       rx="2.095"
       ry="2.4879999"
       id="rect4" />
    <path
       style="opacity:0.1;fill-rule:evenodd"
       d="m 48,45 c 0,3.863996 -3.136004,7 -7,7 -3.864,0 -7,-3.136004 -7,-7 0,-3.864 3.136,-7 7,-7 3.863996,0 7,3.136 7,7 z"
       id="path4" />
    <path
       style="fill:#5294e2;fill-rule:evenodd"
       d="m 48,44 c 0,3.863996 -3.136004,7 -7,7 -3.864,0 -7,-3.136004 -7,-7 0,-3.864 3.136,-7 7,-7 3.863996,0 7,3.136 7,7 z"
       id="path5" />
    <circle
       style="opacity:0.2"
       cx="13"
       cy="23"
       r="3"
       id="circle5" />
    <circle
       style="fill:#ffffff"
       cx="13"
       cy="22"
       r="3"
       id="circle6" />
    <rect
       style="opacity:0.1"
       width="6"
       height="6"
       x="22"
       y="30"
       rx="0.94400001"
       ry="1.031"
       id="rect6" />
    <rect
       style="fill:#5294e2"
       width="6"
       height="6"
       x="22"
       y="29"
       rx="0.94400001"
       ry="1.031"
       id="rect7" />
    <circle
       style="opacity:0.1"
       cx="13"
       cy="33"
       r="3"
       id="circle7" />
    <circle
       style="fill:#5294e2"
       cx="13"
       cy="32"
       r="3"
       id="circle8" />
    <rect
       style="opacity:0.2"
       width="6"
       height="6"
       x="22"
       y="20"
       rx="0.94400001"
       ry="1.031"
       id="rect8" />
    <rect
       style="fill:#ffffff"
       width="6"
       height="6"
       x="22"
       y="19"
       rx="0.94400001"
       ry="1.031"
       id="rect9" />
    <path
       style="opacity:0.1;fill:#ffffff"
       d="M 6.8007812,7 C 5.2484613,7 4,8.238455 4,9.7773438 V 10.777344 C 4,9.2384548 5.2484613,8 6.8007812,8 H 57.199219 C 58.751819,8 60,9.2384548 60,10.777344 V 9.7773438 C 60,8.2384549 58.751819,7 57.199219,7 Z"
       id="path9" />
  </g>
</svg>
