<svg xmlns:osb="http://www.openswatchbook.org/uri/2009/osb" xmlns="http://www.w3.org/2000/svg" xmlns:xlink="http://www.w3.org/1999/xlink" version="1.0" id="svg3570" height="660" width="660">
  <defs id="defs3572">
    <linearGradient id="linearGradient4216" spreadMethod="pad" gradientTransform="matrix(362.91504 0 0 -362.91504 93.4805 371.8452)" gradientUnits="userSpaceOnUse" y2="0" x2="1" y1="0" x1="0">
      <stop id="stop4218" offset="0" style="stop-opacity:1;stop-color:#fff"/>
      <stop id="stop4220" offset="1" style="stop-opacity:1;stop-color:#d2e2f0"/>
    </linearGradient>
    <linearGradient id="linearGradient4210" spreadMethod="pad" gradientTransform="matrix(360.521 0 0 -360.521 75.6147 472.2275)" gradientUnits="userSpaceOnUse" y2="0" x2="1" y1="0" x1="0">
      <stop id="stop4212" offset="0" style="stop-opacity:1;stop-color:#fff"/>
      <stop id="stop4214" offset="1" style="stop-opacity:1;stop-color:#d7e2eb"/>
    </linearGradient>
    <linearGradient x1="0" y1="0" x2="1" y2="0" gradientUnits="userSpaceOnUse" gradientTransform="scale(14.15018 -14.15018) rotate(-5.4284 -302.712 -86.0227)" spreadMethod="pad" id="linearGradient126385">
      <stop style="stop-opacity:1;stop-color:#bdbcbc" offset="0" id="stop126387"/>
      <stop style="stop-opacity:1;stop-color:#5a5758" offset="1" id="stop126389"/>
    </linearGradient>
    <linearGradient osb:paint="gradient" x1="0" y1="0" x2="1" y2="0" gradientUnits="userSpaceOnUse" gradientTransform="scale(199.62548 -199.62548) rotate(82.6613 1.5706 -.0021)" spreadMethod="pad" id="linearGradient126407">
      <stop style="stop-color:#a86514;stop-opacity:1" offset="0" id="stop126409"/>
      <stop style="stop-color:#7084ff;stop-opacity:1" offset="1" id="stop126411"/>
    </linearGradient>
    <linearGradient y2="0" x2="1" y1="0" x1="0" spreadMethod="pad" gradientTransform="translate(805.4503 182.9518) scale(450.65125)" gradientUnits="userSpaceOnUse" id="linearGradient5857" xlink:href="#linearGradient4210"/>
    <linearGradient y2="0" x2="1" y1="0" x1="0" spreadMethod="pad" gradientTransform="translate(827.7825 308.4297) scale(453.6438)" gradientUnits="userSpaceOnUse" id="linearGradient5869" xlink:href="#linearGradient4216"/>
    <linearGradient y2="0" x2="1" y1="0" x1="0" spreadMethod="pad" gradientTransform="rotate(-5.4283 3037.2446 -8478.5025) scale(12.17863)" gradientUnits="userSpaceOnUse" id="linearGradient5886" xlink:href="#linearGradient126385"/>
    <linearGradient xlink:href="#linearGradient126385" id="linearGradient4224" gradientUnits="userSpaceOnUse" gradientTransform="rotate(-5.4283 4034.4184 -8632.3005) scale(12.17863)" spreadMethod="pad" x1="0" y1="0" x2="1" y2="0"/>
    <linearGradient xlink:href="#linearGradient126385" id="linearGradient4228" gradientUnits="userSpaceOnUse" gradientTransform="rotate(-5.4283 4053.761 -9040.3233) scale(12.17863)" spreadMethod="pad" x1="0" y1="0" x2="1" y2="0"/>
    <filter style="color-interpolation-filters:sRGB" id="filter6705">
      <feGaussianBlur id="feGaussianBlur6707" stdDeviation="5.8118586"/>
    </filter>
  </defs>
  <g style="display:inline" transform="translate(-742.6713 -55.5742)" id="layer1">
    <path id="path5888" d="M1236.4607 64.6301c-105.5049 41.3107-209.2404 86.9494-313.8437 130.4375-36.7282 15.3679-73.5394 30.504-110.1875 46.0625l42.5 456.3125c.5238 5.5175 5.3524 9.5463 10.7812 9.0313l458.2812-43.5313c5.4287-.515 9.3976-5.3887 8.875-10.9062l-36.6562-385.875c-1.2728-7.7898-12.5663-12.2157-19.4375-10.75-131.1606 14.2849-262.5211 26.7744-393.8437 39.5l380.5937-157.25-27.0625-73.0313z" style="fill:#231f20;fill-opacity:1;fill-rule:nonzero;stroke:none;filter:url(#filter6705)"/>
    <path id="path5767" style="fill:#231f20;fill-opacity:1;fill-rule:nonzero;stroke:none" d="m1278.4644 253.3174-422.3825 40.1313-15.355 6.4062-2.6625-4.6925-17.8912 1.6988c-5.4288.515-9.4 5.4037-8.8763 10.9212l36.6625 385.8613c.5238 5.5175 5.345 9.5687 10.7738 9.0537l458.2925-43.5462c5.4287-.515 9.4012-5.4013 8.8787-10.9188L1289.2407 262.37c-.5238-5.5175-5.3475-9.5675-10.7763-9.0525"/>
    <path id="path5769" style="fill:#5a5758;fill-opacity:1;fill-rule:nonzero;stroke:none" d="m863.947 296.0887 392.6112-162.2275 3.75-11.25-446.8325 119.045L845.9294 297.8l2.665 4.7125 15.3525-6.4237z"/>
    <path id="path5777" style="fill:url(#linearGradient5857);stroke:none" d="m855.9232 291.775 400.1787-167.4238-45.43-56.6475-405.2212 169.64 32.455 56.1425 2.6637 4.7125 15.3538-6.4237z"/>
    <path id="path5795" style="fill:url(#linearGradient5869);stroke:none" d="M1281.4269 251.3437 840.9032 294.55l13.3882 65.802 421.4068-35.7045z"/>
    <path id="path5823" style="fill:none;stroke:#231f20;stroke-width:2.62232304;stroke-linecap:butt;stroke-linejoin:miter;stroke-miterlimit:4;stroke-dasharray:none;stroke-opacity:1" d="M1319.2467 633.4613c.4272 4.725-3.0001 8.911-7.6582 9.3458l-424.3913 39.802c-4.6545.4388-8.7769-3.0406-9.2052-7.7645l-26.5737-293.7398c-.4297-4.7264 2.9988-8.911 7.6557-9.3472l424.3913-39.802c4.6569-.4374 8.7769 3.0395 9.2052 7.7658l26.5762 293.7399z"/>
    <path id="path5779" d="m1229.4869 60.84-26.1562 9.75 45.3437 57.0937 12.0625-5.1562zm-67.8125 26.8437-59 25.2813 45.375 57.125 59-25.3125zM1049.7369 133.84l-59.0313 25.3125 45.375 57.0937 59.0313-25.2812zm-108.125 46.25-59.0313 25.2812 45.375 57.125 59.0313-25.3125zm-134.9343 60.7865 23.0816 121.9836 73.5132-4.0745-.1135-26.9944-69.1638-94.1129-5.1246-3.6238-19.7695 2.3493zm475.5593 13.7135-13.4375 71.6875 13.0625-1.0625 4.2188-69.25zm-62.0312 2.5625-62.8751 5.9687-13.5 76.0313 62.4063-7.0313zm-104.7501 10.6562-62.5312 5.25-13.3125 73.4688 63.25-2.0625zm-113.625 10.7813-62.4375 6.0937-13.375 72.625 62.4375-3.875z" style="fill:#231f20;fill-opacity:1;fill-rule:nonzero;stroke:none"/>
    <path id="path5811" d="M821.8098 242.6414c-.2058-.001-.4147.001-.624.0215-2.721.2588-4.846 2.2769-5.3792 4.8198-.041.1954-.086.3798-.1076.581-.0454.409-.0404.8223 0 1.248.02.209.046.4007.0861.6024.0406.2088.0897.4025.1506.6025.0592.1934.1381.3753.2152.5594.003.006-.003.0155 0 .0215.075.1777.146.3483.2367.5164.3756.7033.8804 1.3068 1.4846 1.8074.5992.4965 1.2908.8808 2.0441 1.1189.006.002.0152-.002.0215 0 .182.0569.371.111.5595.1506a6.0478 6.0478 0 0 0 1.205.1291c.2056.001.4147-.001.624-.0215.4276-.0407.8317-.1353 1.2263-.2582.1935-.0591.3753-.1165.5595-.1936a5.9325 5.9325 0 0 0 1.0328-.5595 6.1089 6.1089 0 0 0 .71-.5594c.0665-.061.13-.13.1937-.1937.2184-.217.4192-.4414.6025-.6885.0487-.0655.1046-.1261.1506-.1937.003-.005-.003-.0164 0-.0215a5.9913 5.9913 0 0 0 .3012-.4948c.0936-.172.1812-.3355.2582-.5164.231-.542.387-1.1395.4519-1.7429.0433-.4022.0397-.808 0-1.2265-.02-.2104-.0457-.421-.0861-.624a5.824 5.824 0 0 0-.1291-.5163c-.006-.0217-.015-.043-.0215-.0645-.0503-.1646-.1088-.3155-.1722-.4734a5.9564 5.9564 0 0 0-.1936-.4303c-.01-.0201-.0113-.0445-.0215-.0645-.0213-.042-.0424-.0877-.0646-.1291a6.1377 6.1377 0 0 0-.2152-.3658c-.0978-.1547-.2119-.3073-.3227-.4519-.281-.3681-.592-.6959-.9468-.9898-.1341-.111-.2655-.2234-.4088-.3227a6.072 6.072 0 0 0-.1936-.1291c-.0136-.009-.0294-.013-.043-.0215a6.563 6.563 0 0 0-.452-.2582l-.043-.0215c-.2377-.1207-.4776-.2123-.7315-.3012-.0598-.021-.1115-.0454-.1721-.0645a5.8977 5.8977 0 0 0-.581-.1506c-.1536-.0322-.3161-.0658-.4733-.0861-.238-.0301-.4869-.0414-.7316-.043z" style="fill:url(#linearGradient5886);stroke:none"/>
    <path style="fill:url(#linearGradient4224);stroke:none" d="M840.8312 336.2855c-.2057-.001-.4147.001-.624.0215-2.721.2588-4.846 2.2769-5.3792 4.8198-.041.1954-.0859.3798-.1075.581-.0454.409-.0404.8223 0 1.2479.0199.2091.046.4007.086.6025.0407.2088.0898.4025.1507.6024.0592.1934.138.3753.2151.5595.003.006-.003.0155 0 .0215.0751.1776.146.3482.2367.5164.3756.7032.8804 1.3067 1.4847 1.8074.5992.4965 1.2908.8807 2.044 1.1188.006.002.0153-.002.0216 0 .182.057.371.111.5594.1507a6.0478 6.0478 0 0 0 1.205.129c.2056.001.4147-.001.624-.0214.4277-.0407.8317-.1353 1.2264-.2582.1935-.0591.3752-.1166.5594-.1937a5.9325 5.9325 0 0 0 1.0328-.5594 6.1089 6.1089 0 0 0 .7101-.5595c.0664-.0609.13-.1299.1936-.1936.2184-.217.4193-.4414.6025-.6885.0487-.0655.1047-.1262.1507-.1937.003-.005-.003-.0164 0-.0215a5.9913 5.9913 0 0 0 .3012-.4949c.0936-.1719.1811-.3354.2582-.5164.231-.542.3869-1.1395.4518-1.7428.0433-.4023.0397-.808 0-1.2265-.02-.2104-.0457-.421-.086-.624a5.824 5.824 0 0 0-.1292-.5164c-.006-.0217-.0149-.043-.0215-.0645-.0503-.1646-.1088-.3154-.1721-.4734a5.9564 5.9564 0 0 0-.1937-.4303c-.01-.02-.0113-.0445-.0215-.0645-.0213-.0419-.0424-.0877-.0646-.129a6.1377 6.1377 0 0 0-.2152-.3659c-.0978-.1547-.2118-.3073-.3227-.4518-.281-.3682-.592-.696-.9467-.9898-.1341-.1111-.2656-.2234-.4089-.3227a6.072 6.072 0 0 0-.1936-.1291c-.0136-.009-.0294-.013-.043-.0215a6.563 6.563 0 0 0-.4519-.2582l-.043-.0215c-.2378-.1207-.4777-.2124-.7316-.3013-.0598-.021-.1114-.0454-.172-.0645a5.8977 5.8977 0 0 0-.581-.1506c-.1536-.0322-.3162-.0658-.4734-.086-.238-.0302-.4868-.0415-.7315-.043z" id="path4222"/>
    <path id="path4226" d="M879.5174 336.2855c-.2057-.001-.4147.001-.624.0215-2.721.2588-4.846 2.2769-5.3792 4.8198-.041.1954-.0859.3798-.1075.581-.0454.409-.0404.8223 0 1.2479.0199.2091.046.4007.086.6025.0407.2088.0898.4025.1506.6024.0592.1934.1382.3753.2152.5595.003.006-.003.0155 0 .0215.0751.1776.146.3482.2367.5164.3756.7032.8804 1.3067 1.4846 1.8074.5993.4965 1.2908.8807 2.0442 1.1188.006.002.0152-.002.0215 0 .182.057.371.111.5594.1507a6.0478 6.0478 0 0 0 1.205.129c.2056.001.4147-.001.624-.0214.4277-.0407.8317-.1353 1.2264-.2582.1935-.0591.3752-.1166.5594-.1937a5.9325 5.9325 0 0 0 1.0328-.5594 6.1089 6.1089 0 0 0 .7101-.5595c.0664-.0609.13-.1299.1936-.1936.2184-.217.4193-.4414.6025-.6885.0487-.0655.1046-.1262.1506-.1937.003-.005-.003-.0164 0-.0215a5.9913 5.9913 0 0 0 .3013-.4949c.0936-.1719.1811-.3354.2582-.5164.231-.542.3869-1.1395.4518-1.7428.0433-.4023.0397-.808 0-1.2265-.02-.2104-.0457-.421-.0861-.624a5.824 5.824 0 0 0-.1291-.5164c-.006-.0217-.0149-.043-.0215-.0645-.0503-.1646-.1088-.3154-.1721-.4734a5.9564 5.9564 0 0 0-.1937-.4303c-.01-.02-.0113-.0445-.0215-.0645-.0213-.0419-.0424-.0877-.0646-.129a6.1377 6.1377 0 0 0-.2152-.3659c-.0978-.1547-.2118-.3073-.3227-.4518-.281-.3682-.592-.696-.9467-.9898-.1342-.1111-.2656-.2234-.4089-.3227a6.072 6.072 0 0 0-.1936-.1291c-.0136-.009-.0294-.013-.043-.0215a6.563 6.563 0 0 0-.4519-.2582l-.043-.0215c-.2378-.1207-.4777-.2124-.7316-.3013-.0598-.021-.1114-.0454-.1721-.0645a5.8977 5.8977 0 0 0-.581-.1506c-.1535-.0322-.3161-.0658-.4733-.086-.238-.0302-.4869-.0415-.7316-.043z" style="fill:url(#linearGradient4228);stroke:none"/>
  </g>
  <g transform="rotate(.3743 10898.7117 -6391.2658)" style="display:inline" id="layer3">
    <g transform="rotate(-5.7396)" style="font-style:oblique;font-variant:normal;font-weight:700;font-stretch:normal;font-size:76.86286163px;line-height:125%;font-family:'Bitstream Vera Sans';-inkscape-font-specification:'Bitstream Vera Sans Bold Oblique';text-align:start;writing-mode:lr-tb;text-anchor:start;fill:#f0f6fa;fill-opacity:1;fill-rule:nonzero;stroke:#000;stroke-width:1.2810477;stroke-opacity:1" id="text6709">
      <path d="M106.2263 466.3837h61.3002l42.5348 99.9568 42.785-99.9568h61.175v186.7778H268.484V516.5498L225.449 617.257h-30.525l-43.0352-100.7073v136.6117h-45.6624V466.3837z" style="font-style:normal;font-variant:normal;font-weight:700;font-stretch:normal;font-size:256.20956421px;font-family:'Bitstream Vera Sans';-inkscape-font-specification:'Bitstream Vera Sans Bold';fill:#f0f6fa;fill-opacity:1;fill-rule:nonzero;stroke:#000;stroke-width:1.2810477;stroke-opacity:1" id="path4173"/>
      <path d="M339.1669 466.3837h48.4146l49.5405 137.8628 49.4154-137.8628h48.4146l-69.1816 186.7778h-57.422L339.167 466.3837z" style="font-style:normal;font-variant:normal;font-weight:700;font-stretch:normal;font-size:256.20956421px;font-family:'Bitstream Vera Sans';-inkscape-font-specification:'Bitstream Vera Sans Bold';fill:#f0f6fa;fill-opacity:1;fill-rule:nonzero;stroke:#000;stroke-width:1.2810477;stroke-opacity:1" id="path4175"/>
    </g>
  </g>
</svg>

