<svg xmlns="http://www.w3.org/2000/svg" width="512" height="512">
  <defs>
    <filter id="a" width="1" height="1.011" x="0" y="0" color-interpolation-filters="sRGB">
      <feFlood flood-color="#B1B1B1" flood-opacity="1" result="flood"/>
      <feComposite in="flood" in2="SourceGraphic" operator="in" result="composite1"/>
      <feGaussianBlur in="composite1" result="blur"/>
      <feOffset dy="1.967" result="offset"/>
      <feComposite in="SourceGraphic" in2="offset" result="composite2"/>
    </filter>
  </defs>
  <circle cx="256" cy="260.041" r="226.275" opacity=".2"/>
  <path fill="#d9272e" d="M256 29.725C131.03 29.725 29.725 131.029 29.725 256c0 124.97 101.304 226.275 226.275 226.275 124.97 0 226.275-101.304 226.275-226.275 0-124.97-101.304-226.275-226.275-226.275zm117.458 306.291a7 7 0 0 1-7.013 7.013h-29.552a7 7 0 0 1-7.012-7.013v-91.035c0-.752-.877-1.127-1.503-.627l-62.61 62.611c-5.385 5.385-14.276 5.385-19.66 0l-62.611-62.61c-.501-.501-1.503-.126-1.503.626v91.035a7 7 0 0 1-7.012 7.013H145.43a7 7 0 0 1-7.013-7.013V175.984a7 7 0 0 1 7.013-7.013h20.285c3.632 0 7.263 1.503 9.893 4.132l77.888 77.888c1.377 1.378 3.506 1.378 4.883 0l77.888-77.888c2.63-2.63 6.136-4.132 9.892-4.132h20.286a7 7 0 0 1 7.013 7.013z"/>
  <path fill="#fff" d="M256 25.684A226.275 226.275 0 0 0 29.725 251.96a226.275 226.275 0 0 0 .174 4.736A226.275 226.275 0 0 1 256 33.765a226.275 226.275 0 0 1 226.106 221.54 226.275 226.275 0 0 0 .17-3.346A226.275 226.275 0 0 0 256 25.684Z" opacity=".2"/>
  <path fill="#fff" d="m141.06 340.906-1.975-1.7-.187-81.927c-.138-60.623.025-82.438.625-83.892 1.552-3.754 2.63-4.02 16.29-4.02 9.695 0 13.136.246 15.16 1.084 1.812.752 15.09 13.546 43.12 41.55 25.966 25.942 40.996 40.464 41.881 40.464.885 0 15.924-14.526 41.893-40.462 27.99-27.954 41.323-40.798 43.132-41.55 3.325-1.38 25.474-1.573 28.387-.245 4.04 1.84 3.853-2.297 3.853 85.71 0 61.29-.204 81.437-.84 82.834-1.62 3.554-3.281 3.854-21.362 3.854H334.4l-2.059-2.059-2.058-2.058V291.25c0-44.371-.075-47.237-1.223-47.237-.672 0-15.96 14.709-33.979 32.692-29.176 29.119-33.09 32.78-35.808 33.494-3.63.954-6.508.46-10.328-1.773-1.55-.906-16.918-15.769-34.152-33.03-17.235-17.26-31.733-31.383-32.219-31.383-.699 0-.883 9.689-.883 46.514 0 49.835.024 49.476-3.482 51.353-.821.44-8.013.725-18.263.725-16.859 0-16.915-.005-18.885-1.7z" filter="url(#a)"/>
</svg>

