<svg xmlns="http://www.w3.org/2000/svg" width="64" height="64" version="1">
  <rect width="58" height="58" x="-62" y="-61" opacity=".2" rx="2.9" ry="2.9" transform="matrix(0 -1 -1 0 0 0)"/>
  <rect width="58" height="58" x="-61" y="-61" fill="#ffc83b" rx="2.9" ry="2.9" transform="matrix(0 -1 -1 0 0 0)"/>
  <path fill="#fff" d="M3 41h58v1H3z" opacity=".2"/>
  <path fill="#be8a06" d="M3 23h58v18H3z"/>
  <path d="M3 23h58v1H3z" opacity=".2"/>
  <circle cx="31.999" cy="32" r="10.15" fill="#1ac52f"/>
  <path d="M23 23v6h6v-6zm6 6v6h6v-6zm6 0h6v-6h-6zm0 6v6h6v-6zm-6 0h-6v6h6z" opacity=".3"/>
  <path d="M32 18a15 15 0 0 0-15 15 15 15 0 0 0 15 15 15 15 0 0 0 8.227-2.473l7.66 7.601a3 3 0 1 0 4.226-4.257l-7.629-7.575A15 15 0 0 0 47 33a15 15 0 0 0-15-15Zm0 6a9 9 0 0 1 9 9 9 9 0 0 1-9 9 9 9 0 0 1-9-9 9 9 0 0 1 9-9z" opacity=".2"/>
  <path fill="#fff" d="M32 17a15 15 0 0 0-15 15 15 15 0 0 0 15 15 15 15 0 0 0 15-15 15 15 0 0 0-15-15Zm0 6a9 9 0 0 1 9 9 9 9 0 0 1-9 9 9 9 0 0 1-9-9 9 9 0 0 1 9-9z"/>
  <path fill="none" stroke="#fff" stroke-linecap="round" stroke-width="6" d="M41.135 41.202 50 50"/>
  <path fill="#fff" d="M5.898 3A2.891 2.891 0 0 0 3 5.898v1A2.891 2.891 0 0 1 5.898 4h52.204A2.891 2.891 0 0 1 61 6.898v-1A2.891 2.891 0 0 0 58.102 3H5.898z" opacity=".2"/>
</svg>

