<svg xmlns="http://www.w3.org/2000/svg" width="512" height="512">
  <defs>
    <filter id="a" color-interpolation-filters="sRGB">
      <feFlood flood-color="#000" flood-opacity=".498" result="flood"/>
      <feComposite in="flood" in2="SourceGraphic" operator="in" result="composite1"/>
      <feGaussianBlur in="composite1" result="blur" stdDeviation=".2"/>
      <feOffset dx=".1" dy=".1" result="offset"/>
      <feComposite in="SourceGraphic" in2="offset" result="composite2"/>
    </filter>
  </defs>
  <g filter="url(#a)" transform="matrix(19.84046 0 0 19.84046 80.329 -104.104)">
    <path fill="#00687c" d="M4.3 6.6v1.9c.7-.7 1.6-1.3 2.5-1.7.9-.4 1.9-.6 2.9-.6 2.2 0 4.3.9 5.7 2.5 1.6 1.8 2.4 4.1 2.3 6.5.1 2.4-.8 4.7-2.4 6.4-1.5 1.6-3.6 2.6-5.8 2.6-.9 0-1.9-.2-2.8-.5-.9-.4-1.8-1-2.5-1.7v8.1H0V6.6Zm4.5 3.6c-1.3 0-2.5.5-3.3 1.4-.9 1-1.4 2.3-1.3 3.6-.1 1.4.4 2.7 1.3 3.7.9.9 2.1 1.5 3.3 1.4 1.3 0 2.5-.5 3.3-1.4.9-1 1.4-2.3 1.3-3.7.1-1.3-.4-2.6-1.3-3.6-.8-.9-2-1.5-3.3-1.4"/>
  </g>
</svg>

