<?xml version="1.0" encoding="UTF-8"?>
<svg width="140" height="140" version="1.1" viewBox="0 0 140 140" xmlns="http://www.w3.org/2000/svg">
 <defs>
  <linearGradient id="New_Gradient_Swatch_1" x1="2.71" x2="69.77" y1="20.04" y2="20.04" gradientUnits="userSpaceOnUse">
   <stop stop-color="#12b212" offset="0"/>
   <stop stop-color="#0f0" offset="1"/>
  </linearGradient>
  <style>.cls-2{fill:#980200}.cls-3{fill:red}</style>
 </defs>
 <g transform="translate(25.84 5.035)">
  <path d="m36.56 39.93c-16.22-1.73-32.56-13.99-33.85-39.93 25.17 0 38.63 14.9 39.93 38.51 4.76-28.32 27.07-25 27.07-25 1.06 16.05-12.12 25.78-27.07 26.59-4.2-8.85-29.36-30.56-29.36-30.56a0.07 0.07 0 0 0-0.11 0.08s24.28 21.15 23.39 30.31" fill="url(#New_Gradient_Swatch_1)"/>
  <path class="cls-2" d="m44.16 129.93c-1.57-0.09-16.22-0.65-17.11-17.11-0.72-10 7.18-17.37 7.18-27.08-1.79-24.21-34.23-21.21-34.23 0a19.94 19.94 0 0 0 5.83 14.14l24.17 24.18a19.94 19.94 0 0 0 14.14 5.83"/>
  <path class="cls-3" d="m88.32 85.75c-0.09 1.57-0.65 16.22-17.11 17.11-10 0.72-17.38-7.18-27.08-7.18-24.21 1.79-21.21 34.22 0 34.22a19.94 19.94 0 0 0 14.14-5.83l24.19-24.17a19.94 19.94 0 0 0 5.83-14.14"/>
  <path class="cls-2" d="m44.16 41.59c1.57 0.09 16.22 0.65 17.11 17.11 0.72 10-7.18 17.37-7.18 27.08 1.79 24.21 34.22 21.21 34.22 0a19.94 19.94 0 0 0-5.83-14.14l-24.18-24.19a19.94 19.94 0 0 0-14.14-5.83"/>
  <path class="cls-3" d="m0.08 85.75c0.09-1.57 0.65-16.22 17.11-17.11 10-0.72 17.38 7.18 27.08 7.18 24.21-1.82 21.21-34.22 0-34.22a19.94 19.94 0 0 0-14.14 5.83l-24.19 24.18a19.94 19.94 0 0 0-5.83 14.14"/>
 </g>
</svg>
