<svg width="512" height="512" inkscape:version="1.1.1 (3bf5ae0d25, 2021-09-20, custom)" sodipodi:docname="pyload.svg" version="1.1" xmlns="http://www.w3.org/2000/svg" xmlns:inkscape="http://www.inkscape.org/namespaces/inkscape" xmlns:sodipodi="http://sodipodi.sourceforge.net/DTD/sodipodi-0.dtd">
  <g transform="matrix(1.5474 0 0 1.5474 -140.19 -142.01)">
    <g transform="matrix(.30647 0 0 .30647 102.93 103.21)" filter="url(#a)">
      <path d="m74.15 72.17c27.43-30.28 68.14-47.18 108.83-47.2 149.66 0.04 299.33-0.65 448.99-0.2 32.98 0.16 65.96-0.12 98.93 0.31-0.05 27.65 0.06 55.29 0.02 82.93 0.51 19 0.25 38.55-6.26 56.64-14.68 43.61-57.59 75.93-103.6 77.74-66.69 0.33-133.39 0.23-200.08 0.29-17.4 0.25-34.86-0.95-52.19 1.09-31.23 3.64-60.65 18.19-83.97 39.05-22.76 20.42-40.25 47.77-45.26 78.27-1.73 9.55-1.2 19.27-1.41 28.93-0.37 31.43-0.47 62.87-0.41 94.31-25.91 0.09-51.82 0.08-77.73 0.03-23.9-0.28-47.95-7.67-66.83-22.55-24.09-18.64-40.13-46.11-48.8-74.99-3.92-11.02-6.44-22.45-9.25-33.78-4.79-23.17-9.3-46.48-11.13-70.09-3.67-45.51 2.43-91.26 13.4-135.41 5.94-27.56 17.73-54.3 36.75-75.37z" fill="#3673a5"/>
      <path d="m755.01 24.94c29.33 0.04 58.65-0.08 87.98 0.06 19.48 0.12 39.3 4.59 55.81 15.23 14.76 9.27 26.53 22.7 35.42 37.57 11.22 18.6 18.43 39.29 23.98 60.21 9.71 39.31 17.72 79.37 18.22 120 0.91 41.39-6.52 82.82-21.11 121.53-4.5 13.22-10.01 26.07-15.76 38.8-8.36 17.01-18.69 33.57-33.45 45.78-12.68 10.72-28.57 17.34-44.98 19.58-9.96 1.58-20.09 1.45-30.14 1.45-112.49-0.01-224.98 0.03-337.46-0.01-0.03 9.6-0.01 19.2-0.01 28.8h232.45c0.01 26.69-0.01 53.38 0.01 80.07 0.83 19.08-7.51 36.86-15.15 53.85-5.48 12.83-12.25 25.03-18.54 37.46-31.25 57.58-66.37 112.94-102.34 167.65-27.66 42.52-56.37 84.35-85.39 125.95-13.18-17.66-26.56-35.16-39.75-52.81-17.04-23.3-34.38-46.38-51.04-69.95-21.46-29.94-42.9-59.91-63.38-90.53-23.95-35.51-47.28-71.5-67.89-109.07-7.48-15-15.84-29.78-20.12-46.11-1.32-4.69-1.66-9.58-1.61-14.43 0.09-70.97-0.1-141.95 0.1-212.92 0.26-38.77 22.46-75.87 55.26-96.07 15-9.49 32.25-15.29 49.88-17.12 10.31-0.86 20.65-0.56 30.99-0.61 59.32 0 118.64 0.01 177.96 0.01 15.36-0.17 30.74 0.46 46.07-0.58 49.82-4.05 95.9-35.91 118.44-80.33 8.18-15.61 13.15-32.85 14.87-50.37 0.97-12.34 0.63-24.71 0.68-37.06v-76.03m-140.5 547.79c-11.93 2.69-22.62 10.57-28.47 21.33-5.38 9.5-6.69 21.14-3.85 31.65 2.89 10.9 10.29 20.48 20.04 26.13 10.35 6.11 23.3 7.6 34.77 4.04 10.04-2.89 18.77-9.77 24.31-18.59 6.3-10.06 8.16-22.81 4.88-34.22-3.11-11.4-11.29-21.24-21.82-26.55-9.09-4.76-19.87-5.98-29.86-3.79z" fill="#ffd147"/>
    </g>
  </g>
  <sodipodi:namedview bordercolor="#666666" borderopacity="1.0" inkscape:current-layer="svg59" inkscape:cx="249.15254" inkscape:cy="205.9322" inkscape:pagecheckerboard="0" inkscape:pageopacity="0.0" inkscape:pageshadow="2" inkscape:window-height="1013" inkscape:window-maximized="1" inkscape:window-width="1920" inkscape:window-x="0" inkscape:window-y="31" inkscape:zoom="1.18" pagecolor="#ffffff" showgrid="false"/>
  <defs>
    <filter id="a" x="0" y="0" width="1" height="1.0165" color-interpolation-filters="sRGB">
      <feFlood flood-opacity=".2" result="flood"/>
      <feComposite in="flood" in2="SourceGraphic" operator="in" result="composite1"/>
      <feGaussianBlur in="composite1" result="blur"/>
      <feOffset dy="10" result="offset"/>
      <feComposite in="SourceGraphic" in2="offset" result="composite2"/>
    </filter>
    <filter id="b" x="0" y="0" width="1" height="1.0077" color-interpolation-filters="sRGB">
      <feFlood flood-color="#FFF" flood-opacity=".2" result="flood"/>
      <feComposite in="flood" in2="SourceGraphic" operator="out" result="composite1"/>
      <feGaussianBlur in="composite1" result="blur"/>
      <feOffset dy="10" result="offset"/>
      <feComposite in="offset" in2="SourceGraphic" operator="in" result="composite2"/>
    </filter>
    <filter id="c" x="0" y="0" width="1" height="1.0883" color-interpolation-filters="sRGB">
      <feFlood flood-color="#FFF" flood-opacity=".2" result="flood"/>
      <feComposite in="flood" in2="SourceGraphic" operator="out" result="composite1"/>
      <feGaussianBlur in="composite1" result="blur"/>
      <feOffset dy="10" result="offset"/>
      <feComposite in="offset" in2="SourceGraphic" operator="in" result="composite2"/>
    </filter>
  </defs>
</svg>
