<?xml version="1.0" encoding="UTF-8" standalone="no"?>
<svg
   width="64"
   height="64"
   version="1.1"
   id="svg4"
   sodipodi:docname="sparkasse.svg"
   inkscape:version="1.3.2 (091e20ef0f, 2023-11-25, custom)"
   xmlns:inkscape="http://www.inkscape.org/namespaces/inkscape"
   xmlns:sodipodi="http://sodipodi.sourceforge.net/DTD/sodipodi-0.dtd"
   xmlns="http://www.w3.org/2000/svg"
   xmlns:svg="http://www.w3.org/2000/svg">
  <defs
     id="defs4" />
  <sodipodi:namedview
     id="namedview4"
     pagecolor="#ffffff"
     bordercolor="#000000"
     borderopacity="0.25"
     inkscape:showpageshadow="2"
     inkscape:pageopacity="0.0"
     inkscape:pagecheckerboard="0"
     inkscape:deskcolor="#d1d1d1"
     inkscape:zoom="13.3125"
     inkscape:cx="31.962441"
     inkscape:cy="32"
     inkscape:window-width="943"
     inkscape:window-height="1008"
     inkscape:window-x="0"
     inkscape:window-y="0"
     inkscape:window-maximized="1"
     inkscape:current-layer="svg4" />
  <circle
     cx="32"
     cy="33"
     r="28"
     opacity=".2"
     id="circle1" />
  <circle
     cx="32"
     cy="32"
     r="28"
     fill="#e00"
     id="circle2" />
  <path
     d="M 32,4 A 28,28 0 0 0 4,32 28,28 0 0 0 4.0215,32.586 28,28 0 0 1 32,5 28,28 0 0 1 59.979,32.414 28,28 0 0 0 60,32 28,28 0 0 0 32,4 Z"
     fill="#fff"
     opacity=".2"
     id="path2" />
  <g
     transform="translate(0,-0.3)"
     id="g4">
    <g
       transform="translate(0,-0.85)"
       id="g3">
      <path
         d="m 32,12.857 c -0.67649,0 -1.3343,0.14105 -1.9309,0.3995 -0.59925,0.25302 -1.0813,0.5593 -1.5314,0.99875 -0.44211,0.44212 -0.80699,1.0067 -1.0653,1.598 -0.25302,0.59658 -0.3995,1.1878 -0.3995,1.8643 0,0.67649 0.14659,1.3343 0.3995,1.9309 0.25834,0.5886 0.62322,1.092 1.0653,1.5314 0.4501,0.44478 0.93217,0.80699 1.5314,1.0653 0.59659,0.25302 1.2544,0.3995 1.9309,0.3995 0.68181,0 1.3343,-0.14659 1.9309,-0.3995 0.59126,-0.25834 1.092,-0.62056 1.5314,-1.0653 0.44211,-0.43945 0.80699,-0.94282 1.0653,-1.5314 0.25302,-0.59659 0.39951,-1.2544 0.39951,-1.9309 0,-0.67649 -0.14659,-1.2677 -0.39951,-1.8643 -0.25834,-0.59126 -0.62322,-1.1559 -1.0653,-1.598 C 35.02285,13.8158 34.52214,13.50952 33.9309,13.2565 33.33431,12.99816 32.6818,12.857 32,12.857 Z m -9.8543,12.784 c -0.67649,0 -1.2677,0.07457 -1.8643,0.33292 -0.59659,0.25568 -1.1532,0.62322 -1.598,1.0653 -0.44212,0.44211 -0.74574,1.0014 -0.99875,1.598 -0.25835,0.59126 -0.3995,1.1878 -0.3995,1.8643 v 10.787 h 22.572 v 2.9963 h -22.572 v 1.9309 c 0,0.67916 0.14382,1.3343 0.3995,1.9309 0.25302,0.59659 0.5593,1.0866 0.99875,1.5314 0.44478,0.43944 1.0014,0.80965 1.598,1.0653 0.59659,0.25835 1.1878,0.3995 1.8643,0.3995 h 19.709 c 0.67648,0 1.2677,-0.14105 1.8643,-0.3995 0.59925,-0.25568 1.1586,-0.62589 1.598,-1.0653 0.44478,-0.44478 0.80699,-0.93483 1.0653,-1.5314 0.25834,-0.59658 0.33292,-1.2518 0.33292,-1.9309 v -10.787 h -22.572 v -2.9297 h 22.572 v -1.9975 c 0,-0.67649 -0.07181,-1.2731 -0.33292,-1.8643 -0.25568,-0.59659 -0.62056,-1.1559 -1.0653,-1.598 -0.43945,-0.44211 -0.99875,-0.80965 -1.598,-1.0653 C 43.12241,25.71558 42.5312,25.641 41.8547,25.641 Z"
         opacity="0.20048"
         id="path3" />
    </g>
    <path
       d="m 32,11.307 c -0.67649,0 -1.3343,0.14105 -1.9309,0.3995 -0.59925,0.25302 -1.0813,0.5593 -1.5314,0.99875 -0.44211,0.44212 -0.80699,1.0067 -1.0653,1.598 -0.25302,0.59658 -0.3995,1.1878 -0.3995,1.8643 0,0.67649 0.14659,1.3343 0.3995,1.9309 0.25834,0.5886 0.62322,1.092 1.0653,1.5314 0.4501,0.44478 0.93217,0.80699 1.5314,1.0653 0.59659,0.25302 1.2544,0.3995 1.9309,0.3995 0.68181,0 1.3343,-0.14659 1.9309,-0.3995 0.59126,-0.25834 1.092,-0.62056 1.5314,-1.0653 0.44211,-0.43945 0.80699,-0.94282 1.0653,-1.5314 0.25302,-0.59659 0.39951,-1.2544 0.39951,-1.9309 0,-0.67649 -0.14659,-1.2677 -0.39951,-1.8643 -0.25834,-0.59126 -0.62322,-1.1559 -1.0653,-1.598 C 35.02285,12.2658 34.52214,11.95952 33.9309,11.7065 33.33431,11.44816 32.6818,11.307 32,11.307 Z m -9.8543,12.784 c -0.67649,0 -1.2677,0.07457 -1.8643,0.33292 -0.59659,0.25568 -1.1532,0.62322 -1.598,1.0653 -0.44212,0.44211 -0.74574,1.0014 -0.99875,1.598 -0.25835,0.59126 -0.3995,1.1878 -0.3995,1.8643 v 10.787 h 22.572 v 2.9963 h -22.572 v 1.9309 c 0,0.67916 0.14382,1.3343 0.3995,1.9309 0.25302,0.59659 0.5593,1.0866 0.99875,1.5314 0.44478,0.43944 1.0014,0.80965 1.598,1.0653 0.59659,0.25835 1.1878,0.3995 1.8643,0.3995 h 19.709 c 0.67648,0 1.2677,-0.14105 1.8643,-0.3995 0.59925,-0.25568 1.1586,-0.62589 1.598,-1.0653 0.44478,-0.44478 0.80699,-0.93483 1.0653,-1.5314 0.25834,-0.59658 0.33292,-1.2518 0.33292,-1.9309 v -10.787 h -22.572 v -2.9297 h 22.572 v -1.9975 c 0,-0.67649 -0.07181,-1.2731 -0.33292,-1.8643 -0.25568,-0.59659 -0.62056,-1.1559 -1.0653,-1.598 -0.43945,-0.44211 -0.99875,-0.80965 -1.598,-1.0653 C 43.12241,24.16558 42.5312,24.091 41.8547,24.091 Z"
       fill="#ffffff"
       id="path4" />
  </g>
</svg>
