<svg xmlns="http://www.w3.org/2000/svg" enable-background="new 0 0 144.8 144.8" xml:space="preserve" width="512" height="512">
  <defs>
    <filter style="color-interpolation-filters:sRGB" id="a">
      <feFlood flood-opacity=".2" flood-color="#000" result="flood"/>
      <feComposite in="flood" in2="SourceGraphic" operator="in" result="composite1"/>
      <feGaussianBlur in="composite1" result="blur"/>
      <feOffset dy="1" result="offset"/>
      <feComposite in="SourceGraphic" in2="offset" result="fbSourceGraphic"/>
      <feColorMatrix result="fbSourceGraphicAlpha" in="fbSourceGraphic" values="0 0 0 -1 0 0 0 0 -1 0 0 0 0 -1 0 0 0 0 1 0"/>
      <feFlood flood-opacity=".7961" flood-color="#FFF" result="flood"/>
      <feComposite in2="fbSourceGraphic" in="flood" operator="out" result="composite1"/>
      <feGaussianBlur in="composite1" result="blur"/>
      <feOffset dy="1" result="offset"/>
      <feComposite in2="fbSourceGraphic" in="offset" operator="atop" result="composite2"/>
    </filter>
    <filter style="color-interpolation-filters:sRGB" id="b">
      <feFlood flood-opacity=".2" flood-color="#000" result="flood"/>
      <feComposite in="flood" in2="SourceGraphic" operator="in" result="composite1"/>
      <feGaussianBlur in="composite1" result="blur"/>
      <feOffset dy="1" result="offset"/>
      <feComposite in="SourceGraphic" in2="offset" result="fbSourceGraphic"/>
      <feColorMatrix result="fbSourceGraphicAlpha" in="fbSourceGraphic" values="0 0 0 -1 0 0 0 0 -1 0 0 0 0 -1 0 0 0 0 1 0"/>
      <feFlood flood-opacity=".7961" flood-color="#FFF" result="flood"/>
      <feComposite in2="fbSourceGraphic" in="flood" operator="out" result="composite1"/>
      <feGaussianBlur in="composite1" result="blur"/>
      <feOffset dy="1" result="offset"/>
      <feComposite in2="fbSourceGraphic" in="offset" operator="atop" result="composite2"/>
    </filter>
  </defs>
  <g transform="translate(23.68 23.29) scale(3.20884)">
    <circle fill="#fff" cx="72.4" cy="72.4" r="72.4"/>
    <path fill="#ed2224" d="M29.5 111.8c10.6 11.6 25.9 18.8 42.9 18.8 8.7 0 16.9-1.9 24.3-5.3L56.3 85Z"/>
    <path fill="#ed2224" d="M56.1 60.6 25.5 91.1 21.4 87l32.2-32.2 37.6-37.6c-5.9-2-12.2-3.1-18.8-3.1-32.2 0-58.3 26.1-58.3 58.3 0 13.1 4.3 25.2 11.7 35l30.5-30.5 2.1 2 43.7 43.7c.9-.5 1.7-1 2.5-1.6L56.3 72.7 27 102l-4.1-4.1 33.4-33.4 2.1 2 51 50.9c.8-.6 1.5-1.3 2.2-1.9l-55-55z" style="filter:url(#a)"/>
    <path fill="#ed1c24" d="M115.7 111.4c9.3-10.3 15-24 15-39 0-23.4-13.8-43.5-33.6-52.8L60.4 56.2ZM74.5 66.8l-4.1-4.1 28.9-28.9 4.1 4.1zm27.4-39.7L68.6 60.4l-4.1-4.1L97.8 23Z" style="filter:url(#b)"/>
    <path fill="#ed2224" d="M72.4 144.8C32.5 144.8 0 112.3 0 72.4 0 32.5 32.5 0 72.4 0c39.9 0 72.4 32.5 72.4 72.4 0 39.9-32.5 72.4-72.4 72.4zm0-137.5C36.5 7.3 7.3 36.5 7.3 72.4c0 35.9 29.2 65.1 65.1 65.1 35.9 0 65.1-29.2 65.1-65.1 0-35.9-29.2-65.1-65.1-65.1z"/>
  </g>
  <path d="M256 23.2909c-128.0327 0-232.3191 104.2863-232.3191 232.3191 0 1.2923.0282 2.5777.0494 3.865A232.32 232.32 0 0 1 256 31.8696a232.32 232.32 0 0 1 232.2719 227.5431c.0204-1.2666.0473-2.5313.0473-3.8027 0-128.0328-104.2865-232.3191-232.3192-232.3191Z" style="opacity:.200272;fill:#fff;fill-opacity:1;stroke-width:3.20884"/>
  <path style="opacity:.200272;fill:#000;fill-opacity:1;stroke-width:3.20884" d="M256 496.32c-128.0327 0-232.3191-104.2863-232.3191-232.3191 0-1.2923.0282-2.5777.0494-3.865A232.32 232.32 0 0 0 256 487.7413a232.32 232.32 0 0 0 232.2719-227.5431c.0204 1.2666.0473 2.5313.0473 3.8027C488.3192 392.0337 384.0327 496.32 256 496.32Z"/>
</svg>

