<svg viewBox="95 0 512 512" width="512" height="512" xmlns="http://www.w3.org/2000/svg">
  <defs>
    <filter style="color-interpolation-filters:sRGB" id="b" x="0" y="0" width="1.016" height="1.014">
      <feFlood flood-opacity=".2" flood-color="#000" result="flood"/>
      <feComposite in="flood" in2="SourceGraphic" operator="in" result="composite1"/>
      <feGaussianBlur in="composite1" result="blur"/>
      <feOffset dx="1" dy="1" result="offset"/>
      <feComposite in="SourceGraphic" in2="offset" result="composite2"/>
    </filter>
    <filter style="color-interpolation-filters:sRGB" id="d" x="0" y="0" width="1.028" height="1.028">
      <feFlood flood-opacity=".2" flood-color="#000" result="flood"/>
      <feComposite in="flood" in2="SourceGraphic" operator="in" result="composite1"/>
      <feGaussianBlur in="composite1" result="blur"/>
      <feOffset dx="1" dy="1" result="offset"/>
      <feComposite in="SourceGraphic" in2="offset" result="composite2"/>
    </filter>
    <filter style="color-interpolation-filters:sRGB" id="a" x="0" y="0" width="1.021" height="1.02">
      <feFlood flood-opacity=".2" flood-color="#000" result="flood"/>
      <feComposite in="flood" in2="SourceGraphic" operator="in" result="composite1"/>
      <feGaussianBlur in="composite1" result="blur"/>
      <feOffset dx="1" dy="1" result="offset"/>
      <feComposite in="SourceGraphic" in2="offset" result="fbSourceGraphic"/>
      <feColorMatrix result="fbSourceGraphicAlpha" in="fbSourceGraphic" values="0 0 0 -1 0 0 0 0 -1 0 0 0 0 -1 0 0 0 0 1 0"/>
      <feFlood flood-opacity=".2" flood-color="#FFF" result="flood"/>
      <feComposite in2="fbSourceGraphic" in="flood" operator="out" result="composite1"/>
      <feGaussianBlur in="composite1" result="blur"/>
      <feOffset dy="1" result="offset"/>
      <feComposite in2="fbSourceGraphic" in="offset" operator="atop" result="composite2"/>
    </filter>
    <filter style="color-interpolation-filters:sRGB" id="c" x="0" y="0" width="1" height="1.028">
      <feFlood flood-opacity=".2" flood-color="#FFF" result="flood"/>
      <feComposite in="flood" in2="SourceGraphic" operator="out" result="composite1"/>
      <feGaussianBlur in="composite1" result="blur"/>
      <feOffset dy="1" result="offset"/>
      <feComposite in="offset" in2="SourceGraphic" operator="atop" result="composite2"/>
    </filter>
  </defs>
  <g transform="matrix(4.8033 0 0 4.8033 -265.508 -.635)">
    <path fill="#1967d2" d="M112.335 7.662a4.193 4.193 0 0 1 4.193-4.193h22.646a4.193 4.193 0 0 1 4.193 4.193v22.646a4.193 4.193 0 0 1-4.193 4.193h-22.646a4.193 4.193 0 0 1-4.193-4.193zm7.548 2.936v15.726h15.726V10.598Zm-7.863 90.79a7.863 7.863 0 1 1 0-15.725 7.863 7.863 0 0 1 0 15.725zm31.452 0a7.863 7.863 0 1 1 0-15.725 7.863 7.863 0 0 1 0 15.725z" style="fill-rule:evenodd;stroke-width:.191248;filter:url(#a)"/>
    <rect y="21.711" x="97.028" width="61.645" rx="7.548" height="71.5" fill="#4285f4" style="fill-rule:evenodd;stroke-width:.191248;filter:url(#b)"/>
    <path fill="#fbbc04" d="M97.028 29.261v56.4c0 .786.12 1.545.344 2.258l30.507-30.507-30.47-30.525a7.544 7.544 0 0 0-.38 2.374z" style="fill-rule:evenodd;stroke-width:.191248"/>
    <path fill="#ea4335" d="m127.8 57.566.155-.154.154.154zM97.486 26.887a7.552 7.552 0 0 1 7.167-5.176h46.55a7.55 7.55 0 0 1 7.18 5.218l-30.427 30.427z" style="fill-rule:evenodd;stroke-width:.191248;filter:url(#c)"/>
    <path fill="#34a853" d="m127.763 57.356.154.154.154-.154zm-30.315 30.68a7.552 7.552 0 0 0 7.166 5.175h46.55a7.55 7.55 0 0 0 7.18-5.218l-30.427-30.427Z" style="fill-rule:evenodd;stroke-width:.191248"/>
    <circle r="15.097" fill="#4285f4" cy="57.356" cx="127.851" style="fill-rule:evenodd;stroke-width:.191248"/>
    <path fill="#fff" d="M145.933 54.27a20.627 20.627 0 0 1 .352 3.809c0 10.36-6.949 17.729-17.441 17.729-10.039 0-18.169-8.117-18.169-18.137s8.13-18.137 18.169-18.137c4.905 0 9.004 1.802 12.15 4.727l-5.122 5.112v-.011c-1.908-1.814-4.326-2.744-7.029-2.744-5.995 0-10.866 5.056-10.866 11.042 0 5.984 4.871 11.052 10.866 11.052 5.44 0 9.141-3.106 9.903-7.368h-9.903V54.27Z" style="stroke-width:.191248;filter:url(#d)"/>
  </g>
</svg>

