<?xml version="1.0" encoding="UTF-8" standalone="no"?>
<svg
   width="512"
   height="512"
   version="1.1"
   id="svg2"
   sodipodi:docname="system-suspend-symbolic.svg"
   inkscape:version="1.3.2 (091e20ef0f, 2023-11-25, custom)"
   xmlns:inkscape="http://www.inkscape.org/namespaces/inkscape"
   xmlns:sodipodi="http://sodipodi.sourceforge.net/DTD/sodipodi-0.dtd"
   xmlns="http://www.w3.org/2000/svg"
   xmlns:svg="http://www.w3.org/2000/svg">
  <defs
     id="defs2" />
  <sodipodi:namedview
     id="namedview2"
     pagecolor="#ffffff"
     bordercolor="#000000"
     borderopacity="0.25"
     inkscape:showpageshadow="2"
     inkscape:pageopacity="0.0"
     inkscape:pagecheckerboard="0"
     inkscape:deskcolor="#d1d1d1"
     inkscape:zoom="0.85741877"
     inkscape:cx="58.314562"
     inkscape:cy="292.7391"
     inkscape:window-width="948"
     inkscape:window-height="1034"
     inkscape:window-x="0"
     inkscape:window-y="0"
     inkscape:window-maximized="1"
     inkscape:current-layer="svg2" />
  <g
     id="g2"
     transform="matrix(42.458908,0,0,42.458908,-83.671265,-83.671265)">
    <path
       style="fill:#444444"
       d="M 8,2 A 6,6 0 0 0 2,8 6,6 0 0 0 8,14 6,6 0 0 0 14,8 6,6 0 0 0 8,2 Z M 8,4 A 4,4 0 0 1 12,8 4,4 0 0 1 8,12 4,4 0 0 1 4,8 4,4 0 0 1 8,4 Z"
       id="path1" />
    <path
       style="fill:#444444"
       d="m 6,7 h 4 c 0.554,0 1,0.446 1,1 0,0.554 -0.446,1 -1,1 H 6 C 5.446,9 5,8.554 5,8 5,7.446 5.446,7 6,7 Z"
       id="path2" />
  </g>
</svg>
